<?xml version="1.0" encoding="utf-8"?>
<!-- Generator: Adobe Illustrator 22.1.0, SVG Export Plug-In . SVG Version: 6.00 Build 0)  -->
<svg version="1.1" id="Layer_1" xmlns="http://www.w3.org/2000/svg" xmlns:xlink="http://www.w3.org/1999/xlink" x="0px" y="0px"
	 width="604px" height="202px" viewBox="0 0 604 202" style="enable-background:new 0 0 604 202;" xml:space="preserve">
<style type="text/css">
	.st0{opacity:0.03;fill:#FFFFFF;enable-background:new    ;}
	.st1{opacity:0.02;fill:#FFFFFF;enable-background:new    ;}
	.st2{opacity:0.04;fill:#FFFFFF;enable-background:new    ;}
	.st3{opacity:0.15;fill:#FFFFFF;enable-background:new    ;}
	.st4{fill:#FFFFFF;}
	.st5{fill:#1AAC2B;}
	.st6{fill:#19A529;}
	.st7{fill:#189E26;}
	.st8{fill:#179725;}
	.st9{fill:#169024;}
	.st10{fill:#158722;}
	.st11{fill:#148020;}
	.st12{fill:#13791E;}
	.st13{fill:#12721D;}
	.st14{fill:#116B1B;}
	.st15{opacity:0.5;enable-background:new    ;}
	.st16{opacity:0.01;fill:#FFFFFF;}
	.st17{opacity:0.03;fill:#FFFFFF;}
	.st18{opacity:0.04;fill:#FFFFFF;}
	.st19{opacity:0.05;fill:#FFFFFF;}
	.st20{opacity:0.07;fill:#FFFFFF;}
	.st21{opacity:0.09;fill:#FFFFFF;}
	.st22{opacity:0.1;fill:#FFFFFF;}
	.st23{opacity:0.11;fill:#FFFFFF;}
	.st24{opacity:0.12;fill:#FFFFFF;}
	.st25{opacity:0.13;fill:#FFFFFF;}
	.st26{opacity:0.14;fill:#FFFFFF;}
	.st27{opacity:0.16;fill:#FFFFFF;}
	.st28{opacity:0.19;fill:#FFFFFF;}
	.st29{opacity:0.2;fill:#FFFFFF;}
	.st30{opacity:0.22;fill:#FFFFFF;}
	.st31{opacity:0.23;fill:#FFFFFF;}
	.st32{opacity:0.26;fill:#FFFFFF;}
	.st33{opacity:0.29;fill:#FFFFFF;}
	.st34{opacity:0.31;fill:#FFFFFF;}
	.st35{opacity:0.34;fill:#FFFFFF;}
	.st36{opacity:0.36;fill:#FFFFFF;}
	.st37{opacity:0.39;fill:#FFFFFF;}
	.st38{opacity:0.41;fill:#FFFFFF;}
	.st39{opacity:0.43;fill:#FFFFFF;}
	.st40{opacity:0.44;fill:#FFFFFF;}
	.st41{opacity:0.46;fill:#FFFFFF;}
	.st42{opacity:0.47;fill:#FFFFFF;}
	.st43{opacity:0.5;fill:#FFFFFF;}
	.st44{opacity:0.51;fill:#FFFFFF;}
	.st45{opacity:0.52;fill:#FFFFFF;}
	.st46{opacity:0.54;fill:#FFFFFF;}
	.st47{opacity:0.56;fill:#FFFFFF;}
	.st48{opacity:0.58;fill:#FFFFFF;}
	.st49{opacity:0.6;fill:#FFFFFF;}
	.st50{opacity:0.61;fill:#FFFFFF;}
	.st51{opacity:0.62;fill:#FFFFFF;}
	.st52{opacity:0.63;fill:#FFFFFF;}
	.st53{opacity:0.64;fill:#FFFFFF;}
	.st54{opacity:0.66;fill:#FFFFFF;}
	.st55{opacity:0.67;fill:#FFFFFF;}
	.st56{opacity:0.69;fill:#FFFFFF;}
	.st57{opacity:0.7;fill:#FFFFFF;}
	.st58{opacity:0.72;fill:#FFFFFF;}
	.st59{opacity:0.73;fill:#FFFFFF;}
	.st60{opacity:0.75;fill:#FFFFFF;}
	.st61{opacity:0.76;fill:#FFFFFF;}
	.st62{opacity:0.77;fill:#FFFFFF;}
	.st63{opacity:0.79;fill:#FFFFFF;}
	.st64{opacity:0.8;fill:#FFFFFF;}
	.st65{opacity:0.82;fill:#FFFFFF;}
	.st66{opacity:0.83;fill:#FFFFFF;}
	.st67{opacity:0.84;fill:#FFFFFF;}
	.st68{opacity:0.85;fill:#FFFFFF;}
	.st69{opacity:0.87;fill:#FFFFFF;}
</style>
<g id="Shadow">
	<path id="Shadow_-_3_x25_" class="st0" d="M518,130h-1v-1h-1v-1h-32v2h-2v2h-2v2h-2v2h-2v2h-29v-1h-1v-1h-1v-1h-1v-1h-1v-1h-1v-1
		h-1v-1h-1v-1h-1v-1V95h2v-2h2v-2h2v-2h2v-2h2v-2h1h34h1v-1v-1V57h-1v-1h-1v-1h-1v-1h-46v2h-2v2h-2v2h-2v2h-2v2h-2v2h-2v2h-2v2h-2v2
		h-2v2h-2v2h-2v2h-2v2h-2v2h-2v2h-2v2h-2v50h-1v-1h-1v-1h-1v-1h-1v-1h-1v-1h-1v-1h-1v-1h-1v-1h-1v-1h-1v-1h-1v-1h-1v-1h-1v-1h-1v-1
		h-1v-1h-1v-1h-1v-1h-1v-1h-1v-1h-1v-1h-1v-1h-1v-1h-1v-1h-1v-1h-1v-1h-1v-1h-1v-1h-1v-1h-1v-1h-1v-1h-1v-1h-1v-1h-1v-1h-1v-1h-1v-1
		h2v-2h2v-2h2v-2h2v-2h2v-2h2v-2h2v-2h2v-2h2v-2h2v-2h2v-2h2v-2h2v-2h2v-2h2v-2h2v-2h2v-2h2v-2h2v-2h2v-2h2v-2h2v-2h2v-2h2v-2h2v-2
		h2v-2h2v-2h2v-2h2v-2h2v-2h2v-2h2v-2h2v-2h-1v-1h-1v-1h-1v-1h-46v2h-2v2h-2v2h-2v2h-2v2h-2v2h-2v2h-2v2h-2v2h-2v2h-2v2h-2v2h-2v2
		h-2v2h-2v2h-2v2h-1V35h-1v-1h-1v-1h-1v-1h-29V19h-1v-1h-1v-1h-1v-1h-2v2h-2v2h-2v2h-2v2h-2v2h-2v2h-2v2h-2v2h-62v2h-2v2h-2v2h-2v2
		h-2v2h-2v2h-2v2h-2v2h-2v2h-2v2h-2v2h-2v2h-2v2h-2v2h-2v2h-2v2h-2v2h-2v2h-2v2h-29v-1h2v-2h2v-2h2v-2h2v-2h2v-2h2v-2h2v-2h2v-2h2
		v-2h2v-2h2v-2h2v-2h2v-2h2v-2h2v-2h2v-2h2v-2h2v-2h-1v-1h-1v-1h-1v-1h-62v2h-2v2h-2v2h-2v2h-2v2h-2v2h-2v2h-2v2h-2v2h-2v2h-2v2h-2
		v2h-2v2h-2v2h-2v2h-2v2h-2v2h-2v2h-2v2h-2v2h-2v2h-2v2h-2v2h-2v2h-2v2h-2v2h-2v2h-2v2h-2v2h-2v2h-2v2h-2v2h-2v2h-2v2h-2v2h-2v2h-2
		v2h-2v2h-2v2h-2v2h-2v2h-2v2h-2v2h-2v2h-2v2h-2v2h-2v2h-2v2h-2v2h-2v2h-2v2h-2v2h-2v2h-2v2h-2v2h-2v2h-2v2h-2v2h-2v2h-2v2h-2v2h-2
		v2h-2v2h-2v2h-2v2h-2v2h-2v2h1v1h1v1h1v1h1h60h1v-2h2v-2h2v-2h2v-2h2v-2h2v-2h2v-2h2v-2h2v-2h2v-2h2v-2h2v-2h2v-2h2v-2h2v-2h2v-2h2
		v-2h2v-2h2v-2h2v-2h2v-2h2v-2h2v-2h2v-2h2v-2h2v-2h2v-2h2v-2h2v-2h2v-2h2v-2h2v-2h2v-2h2v-2h2v-2h2v-2h2v-2h2v-2h1h27h1v1h-2v2h-2
		v2h-2v2h-2v2h-2v2h-2v2h-2v2h-2v2h-2v2h-2v2h-2v2h-2v2h-2v2h-2v2h-2v2h-2v2h-2v2h-2v2h-2v2h-2v2h-2v2h-2v2h-2v2h-2v2h-2v2h-2v2h-2
		v2h-2v2h-2v2h-2v2h-2v2h-2v2h-2v2h-2v2h-2v2h-2v2h1v1h1v1h1v1h1h102h1v-2h2v-2h2v-2h2v-2h2v-2h2v-2h2v-2h2v-2h2v-2h2v-2h2v-2h1h45
		h1v41h1v1h1v1h1v1h1h32h1v-20h1h30h1v-36h1v1h1v1h1v1h1v1h1v1h1v1h1v1h1v1h1v1h1v1h1v1h1v1h1v1h1v1h1v1h1v1h1v1h1v1h1v1h1v1h1v1h1
		v1h1v1h1v1h1v1h1v1h1v1h1v1h1v1h1v1h1v1h1v1h1v1h1v1h1v1h1v1h1h90h1v-2h2v-2h2v-1v-1h2v-1v-1h2v-1v-1h2v-1v-1h2v-1v-1h2v-1v-1h2v-1
		v-1h2v-1v-1h2v-1v-1h2v-1v-1h2v-1v-1h2v-1v-1h2v-1v-1h2v-1v-1h2v-2h2v-2h2v-2h-1V130z M286,126h-27v-1h2v-2h2v-2h2v-2h2v-2h2v-2h2
		v-2h2v-2h2v-2h2v-2h2v-2h2v-2h2v-2h2v-1v-1h1V126z M518,141h1v28h-1h-26h-1v-1h-1v-1h-1v-1h-1v-2h2v-2h2v-2h2v-2h2v-2h2v-2h2v-2h2
		v-2h2v-2h2v-2h2v-2h2v-2h2v-2h2v-2h2v1h1v1h1V141z M556,35h1v134h-1h-28h-1v-1h-1v-1h-1v-1h-1V97h-1h-3h-1v30h-1h-28h-1v-1h-1v-1
		h-1v-1h-1V32h30v1h1v1h1v1h1v45h5V32h30v1h1v1h1V35z M591,35v30h-1h-28h-1v-1h-1v-1h-1v-1h-1V32h30v1h1v1h1v1H591z M590,69h1v100
		h-1h-28h-1v-1h-1v-1h-1v-1h-1V66h30v1h1v1h1V69z"/>
	<path id="Shadow_-_5_x25_" class="st1" d="M484,85v-1h1v1H484z M518,140h-1v-1h-1v-1h-2v2h-2v2h-2v2h-2v2h-2v2h-2v2h-2v2h-2v2h-2v2
		h-2v2h-2v2h-2v2h-2v2h-2v2h1v1h1v1h1v1h1v-1h25h1v1h1v-28h-1V140z M590,68h-1v-1h-1v-1h-30v100h1v1h1v1h1v1h1v-1h27h1v1h1V69h-1V68
		z M590,35v-1h-1v-1h-1v-1h-30v30h1v1h1v1h1v1h1v-1h27h1v1h1V35H590z M556,34h-1v-1h-1v-1h-30v48h-5V35h-1v-1h-1v-1h-1v-1h-30v92h1
		v1h1v1h1v1h1v-1h27h1v1h1V97h1v-1h3v1h1v69h1v1h1v1h1v1h1v-1h27h1v1h1V35h-1V34z M518,131h1v2h-2v2h-2v2h-3v1h1v1h-3v1h1v1h-3v1h1
		v1h-3v1h1v1h-3v1h1v1h-3v1h1v1h-3v1h1v1h-3v1h1v1h-3v1h1v1h-3v1h1v1h-3v1h1v1h-3v1h1v1h-3v1h1v1h-3v1h1v1h-2v2h-2v2h-1v-1h-1h-89v1
		h-1v-1h-1v-1h-1v-1h-1v-1h-1v-1h-1v-1h-1v-1h-1v-1h-1v-1h-1v-1h-1v-1h-1v-1h-1v-1h-1v-1h-1v-1h-1v-1h-1v-1h-1v-1h-1v-1h-1v-1h-1v-1
		h-1v-1h-1v-1h-1v-1h-1v-1h-1v-1h-1v-1h-1v-1h-1v-1h-1v-1h-1v-1h-1v-1h-1v-1h-1v-1h-1v-1h-1v-1h-1v36h-1v-1h-1h-29v1h-1v20h-1v-1h-1
		h-31v1h-1v-1h-1v-1h-1v-1h-1v-41h-1v-1h-45v1h-1v2h-2v2h-2v2h-2v2h-2v2h-2v2h-2v2h-2v2h-2v2h-2v2h-2v2h-1v-1h-1H116v1h-1v-1h-1v-1
		h-1v-1h-1v-2h2v-2h2v-2h2v-2h2v-2h2v-2h2v-2h2v-2h2v-2h2v-2h2v-2h2v-2h2v-2h2v-2h2v-2h2v-2h2v-2h2v-2h2v-2h2v-2h2v-2h2v-2h2v-2h2
		v-2h2v-2h2v-2h2v-2h2v-2h2v-2h2v-2h2v-2h2v-2h2v-2h2v-2h2v-2h2v-2h2v-1h-1v-1h-27v1h-1v2h-2v2h-2v2h-2v2h-2v2h-2v2h-2v2h-2v2h-2v2
		h-2v2h-2v2h-2v2h-2v2h-2v2h-2v2h-2v2h-2v2h-2v2h-2v2h-2v2h-2v2h-2v2h-2v2h-2v2h-2v2h-2v2h-2v2h-2v2h-2v2h-2v2h-2v2h-2v2h-2v2h-2v2
		h-2v2h-2v2h-2v2h-2v2h-1v-1h-1H20v1h-1v-1h-1v-1h-1v-1h-1v-2h2v-2h2v-2h2v-2h2v-2h2v-2h2v-2h2v-2h2v-2h2v-2h2v-2h2v-2h2v-2h2v-2h2
		v-2h2v-2h2v-2h2v-2h2v-2h2v-2h2v-2h2v-2h2v-2h2v-2h2v-2h2v-2h2v-2h2v-2h2v-2h2v-2h2v-2h2v-2h2v-2h2v-2h2v-2h2v-2h2v-2h2v-2h2v-2h2
		v-2h2v-2h2v-2h2v-2h2v-2h2v-2h2v-2h2v-2h2v-2h2v-2h2v-2h2v-2h2v-2h2v-2h2v-2h2v-2h2v-2h2v-2h2v-2h2v-2h2v-2h2v-2h2v-2h2v-2h2v-2h2
		v-2h2v-2h2v-2h62v1h1v1h1v1h1v2h-2v2h-2v2h-2v2h-2v2h-2v2h-2v2h-2v2h-2v2h-2v2h-2v2h-2v2h-2v2h-2v2h-2v2h-2v2h-2v2h-2v2h-2v1h29v-2
		h2v-2h2v-2h2v-2h2v-2h2v-2h2v-2h2v-2h2v-2h2v-2h2v-2h2v-2h2v-2h2v-2h2v-2h2v-2h2v-2h2v-2h2v-2h62v-2h2v-2h2v-2h2v-2h2v-2h2v-2h2v-2
		h2v-2h2v1h1v1h1v1h1v13h29v1h1v1h1v1h1v29h1v-2h2v-2h2v-2h2v-2h2v-2h2v-2h2v-2h2v-2h2v-2h2v-2h2v-2h2v-2h2v-2h2v-2h2v-2h2v-2h46v1
		h1v1h1v1h1v2h-2v2h-2v2h-2v2h-2v2h-2v2h-2v2h-2v2h-2v2h-2v2h-2v2h-2v2h-2v2h-2v2h-2v2h-2v2h-2v2h-2v2h-2v2h-2v2h-2v2h-2v2h-2v2h-2
		v2h-2v2h-2v2h-2v2h-2v2h-2v2h-2v2h-2v2h-2v2h-2v2h-2v1h1v1h1v1h1v1h1v1h1v1h1v1h1v1h1v1h1v1h1v1h1v1h1v1h1v1h1v1h1v1h1v1h1v1h1v1h1
		v1h1v1h1v1h1v1h1v1h1v1h1v1h1v1h1v1h1v1h1v1h1v1h1v1h1v1h1v1h1v1h1V86h2v-2h2v-2h2v-2h2v-2h2v-2h2v-2h2v-2h2v-2h2v-2h2v-2h2v-2h2
		v-2h2v-2h2v-2h2v-2h2v-2h46v1h1v1h1v1h1v26h-1v1h-1h-33v1h-1v2h-2v2h-2v2h-2v2h-2v2h-2v34v1h1v1h1v1h1v1h1v1h1v1h1v1h1v1h1v1h29v-2
		h2v-2h2v-2h2v-2h2v-2h32v1h1v1h1V131z M286,99h-1h-1v1h1v1h-2v2h-2v2h-2v2h-2v2h-2v2h-2v2h-2v2h-2v2h-2v2h-2v2h-2v2h-2v2h-2v1h27
		V99z"/>
	<path id="Shadow_-_8_x25_" class="st0" d="M590,34v30h-1h-27h-2v-1h-1v-1h-1V32h30v1h1v1H590z M517,139h-1v-1h-2v2h-2v2h-2v2h-2v2
		h-2v2h-2v2h-2v2h-2v2h-2v2h-2v2h-2v2h-2v2h-2v2h-2v2h1v1h1v1h2h25h1v-28h-1V139z M555,33h-1v-1h-30v48h-6V34h-1v-1h-1v-1h-30v92h1
		v1h1v1h2h27h1V96h1h4h1v70h1v1h1v1h2h27h1V34h-1V33z M517,130h1v2h-2v2h-2v2h-2v2h-2v2h-2v2h-2v2h-2v2h-2v2h-2v2h-2v2h-2v2h-2v2h-2
		v2h-2v2h-2v2h-2v2h-2v2h-2v2h-1h-89h-2v-1h-1v-1h-1v-1h-1v-1h-1v-1h-1v-1h-1v-1h-1v-1h-1v-1h-1v-1h-1v-1h-1v-1h-1v-1h-1v-1h-1v-1
		h-1v-1h-1v-1h-1v-1h-1v-1h-1v-1h-1v-1h-1v-1h-1v-1h-1v-1h-1v-1h-1v-1h-1v-1h-1v-1h-1v-1h-1v-1h-1v-1h-1v-1h-1v-1h-1v-1h-1v-1h-1v-1
		h-1v36h-1h-30h-1v20h-1h-31h-2v-1h-1v-1h-1v-42h-1h-46h-1v2h-2v2h-2v2h-2v2h-2v2h-2v2h-2v2h-2v2h-2v2h-2v2h-2v2h-1H116h-2v-1h-1v-1
		h-1v-2h2v-2h2v-2h2v-2h2v-2h2v-2h2v-2h2v-2h2v-2h2v-2h2v-2h2v-2h2v-2h2v-2h2v-2h2v-2h2v-2h2v-2h2v-2h2v-2h2v-2h2v-2h2v-2h2v-2h2v-2
		h2v-2h2v-2h2v-2h2v-2h2v-2h2v-2h2v-2h2v-2h2v-2h2v-2h2v-2h2v-2h-1h-28h-1v2h-2v2h-2v2h-2v2h-2v2h-2v2h-2v2h-2v2h-2v2h-2v2h-2v2h-2
		v2h-2v2h-2v2h-2v2h-2v2h-2v2h-2v2h-2v2h-2v2h-2v2h-2v2h-2v2h-2v2h-2v2h-2v2h-2v2h-2v2h-2v2h-2v2h-2v2h-2v2h-2v2h-2v2h-2v2h-2v2h-2
		v2h-2v2h-1H20h-2v-1h-1v-1h-1v-2h2v-2h2v-2h2v-2h2v-2h2v-2h2v-2h2v-2h2v-2h2v-2h2v-2h2v-2h2v-2h2v-2h2v-2h2v-2h2v-2h2v-2h2v-2h2v-2
		h2v-2h2v-2h2v-2h2v-2h2v-2h2v-2h2v-2h2v-2h2v-2h2v-2h2v-2h2v-2h2v-2h2v-2h2v-2h2v-2h2v-2h2v-2h2v-2h2v-2h2v-2h2v-2h2v-2h2v-2h2v-2
		h2v-2h2v-2h2v-2h2v-2h2v-2h2v-2h2v-2h2v-2h2v-2h2v-2h2v-2h2v-2h2v-2h2v-2h2v-2h2v-2h2v-2h2v-2h2v-2h2v-2h2v-2h2v-2h62v1h1v1h1v2h-1
		v1h-1v1h-1v1h-1v1h-1v1h-1v1h-1v1h-1v1h-1v1h-1v1h-1v1h-1v1h-1v1h-1v1h-1v1h-1v1h-1v1h-1v1h-1v1h-1v1h-1v1h-1v1h-1v1h-1v1h-1v1h-1
		v1h-1v1h-1v1h-1v1h-1v1h-1v1h-1v1h-1v1h-1v1h-1h-1v2h30v-2h2v-2h2v-2h2v-2h2v-2h2v-2h2v-2h2v-2h2v-2h2v-2h2v-2h2v-2h2v-2h2v-2h2v-2
		h2v-2h2v-2h2v-2h2v-2h62v-2h2v-2h2v-2h2v-2h2v-2h2v-2h2v-2h2v-2h2v1h1v1h1v14h30v1h1v1h1v30h2v-2h2v-2h2v-2h2v-2h2v-2h2v-2h2v-2h2
		v-2h2v-2h2v-2h2v-2h2v-2h2v-2h2v-2h2v-2h2v-2h46v1h1v1h1v2h-2v2h-2v2h-2v2h-2v2h-2v2h-2v2h-2v2h-2v2h-2v2h-2v2h-2v2h-2v2h-2v2h-2v2
		h-2v2h-2v2h-2v2h-2v2h-2v2h-2v2h-2v2h-2v2h-2v2h-2v2h-2v2h-2v2h-2v2h-2v2h-2v2h-2v2h-2v2h-2v2h-2v1h1v1h1v1h1v1h1v1h1v1h1v1h1v1h1
		v1h1v1h1v1h1v1h1v1h1v1h1v1h1v1h1v1h1v1h1v1h1v1h1v1h1v1h1v1h1v1h1v1h1v1h1v1h1v1h1v1h1v1h1v1h1v1h1v1h1v1h1v1h1v1h1V86h2v-2h2v-2
		h2v-2h2v-2h2v-2h2v-2h2v-2h2v-2h2v-2h2v-2h2v-2h2v-2h2v-2h2v-2h2v-2h2v-2h46v1h1v1h1v28h-1h-34v1h-1v1h-1v1h-1v1h-1v1h-1v1h-1v1h-1
		v1h-1v1h-1v1h-1h-1v34v1h1v1h1v1h1v1h1v1h1v1h1v1h1v1h1v1h1v1h29v-2h2v-2h2v-2h2v-2h2v-2h32v1h1V130z M286,98h-1v1h-1v1h-1v1h-1v1
		h-1v1h-1v1h-1v1h-1v1h-1v1h-1v1h-1v1h-1v1h-1v1h-1v1h-1v1h-1v1h-1v1h-1v1h-1v1h-1v1h-1v1h-1v1h-1v1h-1v1h-1v1h-1v1h-1h-1v2h28V98z
		 M589,67h-1v-1h-30v100h1v1h1v1h2h27h1V68h-1V67z"/>
	<path id="Shadow_-_12_x25_" class="st2" d="M590,34v30h-1v-1h-27v1h-2v-1h-1v-1h-1V32h30v1h1v1H590z M517,139h-1v-1h-2v2h-2v2h-2v2
		h-2v2h-2v2h-2v2h-2v2h-2v2h-2v2h-2v2h-2v2h-2v2h-2v2h-2v2h1v1h1v1h2v-1h25v1h1v-28h-1V139z M589,67h-1v-1h-30v100h1v1h1v1h2v-1h27
		v1h1V68h-1V67z M555,33h-1v-1h-30v48h-6V34h-1v-1h-1v-1h-30v92h1v1h1v1h2v-1h27v1h1V96h1v-1h4v1h1v70h1v1h1v1h2v-1h27v1h1V34h-1V33
		z M517,130h1v2h-2v2h-2v2h-2v2h-2v2h-2v2h-2v2h-2v2h-2v2h-2v2h-2v2h-2v2h-2v2h-2v2h-2v2h-2v2h-2v2h-2v2h-2v2h-1v-1h-89v1h-2v-1h-1
		v-1h-1v-1h-1v-1h-1v-1h-1v-1h-1v-1h-1v-1h-1v-1h-1v-1h-1v-1h-1v-1h-1v-1h-1v-1h-1v-1h-1v-1h-1v-1h-1v-1h-1v-1h-1v-1h-1v-1h-1v-1h-1
		v-1h-1v-1h-1v-1h-1v-1h-1v-1h-1v-1h-1v-1h-1v-1h-1v-1h-1v-1h-1v-1h-1v-1h-1v-1h-1v-1h-1v36h-1v-1h-30v1h-1v20h-1v-1h-31v1h-2v-1h-1
		v-1h-1v-42h-1v-1h-46v1h-1v2h-2v2h-2v2h-2v2h-2v2h-2v2h-2v2h-2v2h-2v2h-2v2h-2v2h-1v-1H116v1h-2v-1h-1v-1h-1v-2h2v-2h2v-2h2v-2h2
		v-2h2v-2h2v-2h2v-2h2v-2h2v-2h2v-2h2v-2h2v-2h2v-2h2v-2h2v-2h2v-2h2v-2h2v-2h2v-2h2v-2h2v-2h2v-2h2v-2h2v-2h2v-2h2v-2h2v-2h2v-2h2
		v-2h2v-2h2v-2h2v-2h2v-2h2v-2h2v-2h2v-2h-1v-1h-28v1h-1v2h-2v2h-2v2h-2v2h-2v2h-2v2h-2v2h-2v2h-2v2h-2v2h-2v2h-2v2h-2v2h-2v2h-2v2
		h-2v2h-2v2h-2v2h-2v2h-2v2h-2v2h-2v2h-2v2h-2v2h-2v2h-2v2h-2v2h-2v2h-2v2h-2v2h-2v2h-2v2h-2v2h-2v2h-2v2h-2v2h-2v2h-2v2h-1v-1H20v1
		h-2v-1h-1v-1h-1v-2h2v-2h2v-2h2v-2h2v-2h2v-2h2v-2h2v-2h2v-2h2v-2h2v-2h2v-2h2v-2h2v-2h2v-2h2v-2h2v-2h2v-2h2v-2h2v-2h2v-2h2v-2h2
		v-2h2v-2h2v-2h2v-2h2v-2h2v-2h2v-2h2v-2h2v-2h2v-2h2v-2h2v-2h2v-2h2v-2h2v-2h2v-2h2v-2h2v-2h2v-2h2v-2h2v-2h2v-2h2v-2h2v-2h2v-2h2
		v-2h2v-2h2v-2h2v-2h2v-2h2v-2h2v-2h2v-2h2v-2h2v-2h2v-2h2v-2h2v-2h2v-2h2v-2h2v-2h2v-2h2v-2h2v-2h2v-2h62v1h1v1h1v2h-1v-1h-1v3h-1
		v-1h-1v3h-1v-1h-1v3h-1v-1h-1v3h-1v-1h-1v3h-1v-1h-1v3h-1v-1h-1v3h-1v-1h-1v3h-1v-1h-1v3h-1v-1h-1v3h-1v-1h-1v3h-1v-1h-1v3h-1v-1
		h-1v3h-1v-1h-1v3h-1v-1h-1v3h-1v-1h-1v3h-1v-1h-1v3h-1v-1h-1v3h30v-2h2v-2h2v-2h2v-2h2v-2h2v-2h2v-2h2v-2h2v-2h2v-2h2v-2h2v-2h2v-2
		h2v-2h2v-2h2v-2h2v-2h2v-2h2v-2h62v-2h2v-2h2v-2h2v-2h2v-2h2v-2h2v-2h2v-2h2v1h1v1h1v14h30v1h1v1h1v30h2v-2h2v-2h2v-2h2v-2h2v-2h2
		v-2h2v-2h2v-2h2v-2h2v-2h2v-2h2v-2h2v-2h2v-2h2v-2h2v-2h46v1h1v1h1v2h-2v2h-2v2h-2v2h-2v2h-2v2h-2v2h-2v2h-2v2h-2v2h-2v2h-2v2h-2v2
		h-2v2h-2v2h-2v2h-2v2h-2v2h-2v2h-2v2h-2v2h-2v2h-2v2h-2v2h-2v2h-2v2h-2v2h-2v2h-2v2h-2v2h-2v2h-2v2h-2v2h-2v1h1v1h1v1h1v1h1v1h1v1
		h1v1h1v1h1v1h1v1h1v1h1v1h1v1h1v1h1v1h1v1h1v1h1v1h1v1h1v1h1v1h1v1h1v1h1v1h1v1h1v1h1v1h1v1h1v1h1v1h1v1h1v1h1v1h1v1h1v1h1v1h1V86
		h2v-2h2v-2h2v-2h2v-2h2v-2h2v-2h2v-2h2v-2h2v-2h2v-2h2v-2h2v-2h2v-2h2v-2h2v-2h2v-2h46v1h1v1h1v28h-1v-1h-35v3h-1v-1h-1v3h-1v-1h-1
		v3h-1v-1h-1v3h-1v-1h-1v3h-1v-1h-1v35v1h1v1h1v1h1v1h1v1h1v1h1v1h1v1h1v1h1v1h29v-2h2v-2h2v-2h2v-2h2v-2h32v1h1V130z M286,98h-1v-1
		h-1v3h-1v-1h-1v3h-1v-1h-1v3h-1v-1h-1v3h-1v-1h-1v3h-1v-1h-1v3h-1v-1h-1v3h-1v-1h-1v3h-1v-1h-1v3h-1v-1h-1v3h-1v-1h-1v3h-1v-1h-1v3
		h-1v-1h-1v3h-1v-1h-1v3h28V98z"/>
	<path id="Shadow_-_27_x25_" class="st3" d="M589,33v30h-30v-1h-1V32h30v1H589z M516,138h-2v2h-2v2h-2v2h-2v2h-2v2h-2v2h-2v2h-2v2
		h-2v2h-2v2h-2v2h-2v2h-2v2h-2v2h1v1h28v-28h-1V138z M554,32h-30v48h-7V33h-1v-1h-30v92h1v1h30V95h7v71h1v1h30V33h-1V32z M588,66
		h-30v100h1v1h30V67h-1V66z M516,129h1v2h-2v2h-2v2h-2v2h-2v2h-2v2h-2v2h-2v2h-2v2h-2v2h-2v2h-2v2h-2v2h-2v2h-2v2h-2v2h-2v2h-2v2h-2
		v2h-92v-1h-1v-1h-1v-1h-1v-1h-1v-1h-1v-1h-1v-1h-1v-1h-1v-1h-1v-1h-1v-1h-1v-1h-1v-1h-1v-1h-1v-1h-1v-1h-1v-1h-1v-1h-1v-1h-1v-1h-1
		v-1h-1v-1h-1v-1h-1v-1h-1v-1h-1v-1h-1v-1h-1v-1h-1v-1h-1v-1h-1v-1h-1v-1h-1v-1h-1v-1h-1v-1h-1v-1h-1v36h-32v20h-34v-1h-1v-43h-49v2
		h-2v2h-2v2h-2v2h-2v2h-2v2h-2v2h-2v2h-2v2h-2v2h-2v2H113v-1h-1v-2h2v-2h2v-2h2v-2h2v-2h2v-2h2v-2h2v-2h2v-2h2v-2h2v-2h2v-2h2v-2h2
		v-2h2v-2h2v-2h2v-2h2v-2h2v-2h2v-2h2v-2h2v-2h2v-2h2v-2h2v-2h2v-2h2v-2h2v-2h2v-2h2v-2h2v-2h2v-2h2v-2h2v-2h2v-2h2v-2h2v-2h2v-1
		h-33v2h-2v2h-2v2h-2v2h-2v2h-2v2h-2v2h-2v2h-2v2h-2v2h-2v2h-2v2h-2v2h-2v2h-2v2h-2v2h-2v2h-2v2h-2v2h-2v2h-2v2h-2v2h-2v2h-2v2h-2v2
		h-2v2h-2v2h-2v2h-2v2h-2v2h-2v2h-2v2h-2v2h-2v2h-2v2h-2v2h-2v2h-2v2H17v-1h-1v-2h2v-2h2v-2h2v-2h2v-2h2v-2h2v-2h2v-2h2v-2h2v-2h2
		v-2h2v-2h2v-2h2v-2h2v-2h2v-2h2v-2h2v-2h2v-2h2v-2h2v-2h2v-2h2v-2h2v-2h2v-2h2v-2h2v-2h2v-2h2v-2h2v-2h2v-2h2v-2h2v-2h2v-2h2v-2h2
		v-2h2v-2h2v-2h2v-2h2v-2h2v-2h2v-2h2v-2h2v-2h2v-2h2v-2h2v-2h2v-2h2v-2h2v-2h2v-2h2v-2h2v-2h2v-2h2v-2h2v-2h2v-2h2v-2h2v-2h2v-2h2
		v-2h2v-2h2v-2h2v-2h2v-2h2v-2h2v-2h62v1h1v2h-2v2h-2v2h-2v2h-2v2h-2v2h-2v2h-2v2h-2v2h-2v2h-2v2h-2v2h-2v2h-2v2h-2v2h-2v2h-2v2h-2
		v2h-2v2h-2v1h33v-2h2v-2h2v-2h2v-2h2v-2h2v-2h2v-2h2v-2h2v-2h2v-2h2v-2h2v-2h2v-2h2v-2h2v-2h2v-2h2v-2h2v-2h2v-2h62v-2h2v-2h2v-2h2
		v-2h2v-2h2v-2h2v-2h2v-2h2v1h1v15h31v1h1v33h1v-2h2v-2h2v-2h2v-2h2v-2h2v-2h2v-2h2v-2h2v-2h2v-2h2v-2h2v-2h2v-2h2v-2h2v-2h2v-2h2
		v-2h46v1h1v2h-2v2h-2v2h-2v2h-2v2h-2v2h-2v2h-2v2h-2v2h-2v2h-2v2h-2v2h-2v2h-2v2h-2v2h-2v2h-2v2h-2v2h-2v2h-2v2h-2v2h-2v2h-2v2h-2
		v2h-2v2h-2v2h-2v2h-2v2h-2v2h-2v2h-2v2h-2v2h-2v2h-2v1h1v1h1v1h1v1h1v1h1v1h1v1h1v1h1v1h1v1h1v1h1v1h1v1h1v1h1v1h1v1h1v1h1v1h1v1h1
		v1h1v1h1v1h1v1h1v1h1v1h1v1h1v1h1v1h1v1h1v1h1v1h1v1h1v1h1v1h1v1h1v1h1v1h1V86h2v-2h2v-2h2v-2h2v-2h2v-2h2v-2h2v-2h2v-2h2v-2h2v-2
		h2v-2h2v-2h2v-2h2v-2h2v-2h2v-2h46v1h1v28h-36v2h-2v2h-2v2h-2v2h-2v2h-2v35h1v1h1v1h1v1h1v1h1v1h1v1h1v1h1v1h1v1h1v1h29v-2h2v-2h2
		v-2h2v-2h2v-2h32V129z M286,95h-1v2h-2v2h-2v2h-2v2h-2v2h-2v2h-2v2h-2v2h-2v2h-2v2h-2v2h-2v2h-2v2h-2v2h-2v2h-2v1h31V95z"/>
</g>
<path id="White_Back" class="st4" d="M486,32h30v48h8V32h30v134h-30V94h-8v30h-30V32z M558,32h30v30h-30V32z M558,66h30v100h-30V66z
	 M484,128v2h-2v2h-2v2h-2v2h-2v2h-30v-2h-2v-2h-2v-2h-2v-2h-2v-2h-2V92h2v-2h2v-2h2v-2h2v-2h2v-2h36V54h-46v2h-2v2h-2v2h-2v2h-2v2
	h-2v2h-2v2h-2v2h-2v2h-2v2h-2v2h-2v2h-2v2h-2v2h-2v2h-2v2h-2v50h-2v-2h-2v-2h-2v-2h-2v-2h-2v-2h-2v-2h-2v-2h-2v-2h-2v-2h-2v-2h-2v-2
	h-2v-2h-2v-2h-2v-2h-2v-2h-2v-2h-2v-2h-2v-2h-2v-2h2v-2h2v-2h2v-2h2v-2h2v-2h2v-2h2v-2h2v-2h2v-2h2v-2h2v-2h2v-2h2v-2h2v-2h2v-2h2
	v-2h2v-2h2v-2h2v-2h2v-2h2v-2h2v-2h2v-2h2v-2h2v-2h2v-2h2v-2h2v-2h2v-2h2v-2h2v-2h2v-2h2v-2h-46v2h-2v2h-2v2h-2v2h-2v2h-2v2h-2v2h-2
	v2h-2v2h-2v2h-2v2h-2v2h-2v2h-2v2h-2v2h-2v2h-2v2h-2V32h-32V16h-2v2h-2v2h-2v2h-2v2h-2v2h-2v2h-2v2h-2v2h-62v2h-2v2h-2v2h-2v2h-2v2
	h-2v2h-2v2h-2v2h-2v2h-2v2h-2v2h-2v2h-2v2h-2v2h-2v2h-2v2h-2v2h-2v2h-2v2h-34v-2h2v-2h2v-2h2v-2h2v-2h2v-2h2v-2h2v-2h2v-2h2v-2h2v-2
	h2v-2h2v-2h2v-2h2v-2h2v-2h2v-2h2v-2h2v-2h2v-2h-62v2h-2v2h-2v2h-2v2h-2v2h-2v2h-2v2h-2v2h-2v2h-2v2h-2v2h-2v2h-2v2h-2v2h-2v2h-2v2
	h-2v2h-2v2h-2v2h-2v2h-2v2h-2v2h-2v2h-2v2h-2v2h-2v2h-2v2h-2v2h-2v2h-2v2h-2v2h-2v2h-2v2h-2v2h-2v2h-2v2h-2v2h-2v2h-2v2h-2v2h-2v2
	h-2v2h-2v2h-2v2h-2v2h-2v2h-2v2h-2v2h-2v2h-2v2h-2v2h-2v2h-2v2h-2v2h-2v2h-2v2h-2v2h-2v2h-2v2h-2v2h-2v2h-2v2h-2v2h-2v2h-2v2h-2v2
	h-2v2h62v-2h2v-2h2v-2h2v-2h2v-2h2v-2h2v-2h2v-2h2v-2h2v-2h2v-2h2v-2h2v-2h2v-2h2v-2h2v-2h2v-2h2v-2h2v-2h2v-2h2v-2h2v-2h2v-2h2v-2
	h2v-2h2v-2h2v-2h2v-2h2v-2h2v-2h2v-2h2v-2h2v-2h2v-2h2v-2h2v-2h2v-2h2v-2h34v2h-2v2h-2v2h-2v2h-2v2h-2v2h-2v2h-2v2h-2v2h-2v2h-2v2
	h-2v2h-2v2h-2v2h-2v2h-2v2h-2v2h-2v2h-2v2h-2v2h-2v2h-2v2h-2v2h-2v2h-2v2h-2v2h-2v2h-2v2h-2v2h-2v2h-2v2h-2v2h-2v2h-2v2h-2v2h-2v2
	h-2v2h-2v2h104v-2h2v-2h2v-2h2v-2h2v-2h2v-2h2v-2h2v-2h2v-2h2v-2h2v-2h50v44h34v-20h32v-36h2v2h2v2h2v2h2v2h2v2h2v2h2v2h2v2h2v2h2v2
	h2v2h2v2h2v2h2v2h2v2h2v2h2v2h2v2h92v-2h2v-2h2v-2h2v-2h2v-2h2v-2h2v-2h2v-2h2v-2h2v-2h2v-2h2v-2h2v-2h2v-2h2v-2h2v-2h2v-2h2v-2h2
	v-2H484z M286,126h-32v-2h2v-2h2v-2h2v-2h2v-2h2v-2h2v-2h2v-2h2v-2h2v-2h2v-2h2v-2h2v-2h2v-2h2v-2h2v-2h2V126z M514,138h2v28h-28v-2
	h2v-2h2v-2h2v-2h2v-2h2v-2h2v-2h2v-2h2v-2h2v-2h2v-2h2v-2h2v-2h2V138z"/>
<g id="Gradient">
	<g>
		<path class="st5" d="M526,34h26v2v18v18v18v18v18v18v18v2h-26v-2v-18v-18v-18V92h-12v16v14h-26v-14V90V72V54V36v-2h26v2v18v18v10
			h12V72V54V36V34z M560,72v18v18v18v18v18v2h26v-2v-18v-18v-18V90V72v-4h-26V72z M560,34v2v18v6h26v-6V36v-2H560z M316,20h2v16v18
			v18v18v18v18v18v18v18v4h-30v-4v-18v-18v-4h-52v2h-2v2h-2v2h-2v2h-2v2h-2v2h-2v2h-2v2h-2v2h-2v2h-2v2h-40v-2h2v-2h2v-2h2v-2h2v-2
			h2v-2h2v-2h2v-2h2v-2h2v-2h2v-2h2v-2h2v-2h2v-2h2v-2h2v-2h2v-2h2v-2h2v-2h2v-2h2v-2h2v-2h2v-2h2v-2h2v-2h2v-2h2v-2h2v-2h2v-2h2v-2
			h2v-2h2v-2h2v-2h2v-2h2v-2h2v-2h2v-2h2v-2h2v-2h2v-2h2v-2h2v-2h2v-2h2v-2h2v-2h2v-2h2v-2h2v-2h2v-2h2v-2h2v-2h2v-2h2v-2h2v-2h2v-2
			h2v-2h2v-2h2v-2h2v-2h2v-2h2v-2h2v-2h2v-2h2v-2h2v-2h2v-2h2v-2h2v-2h2v-2h2v-2h2V20z M288,128v-2v-18V90h-2v2h-2v2h-2v2h-2v2h-2v2
			h-2v2h-2v2h-2v2h-2v2h-2v2h-2v2h-2v2h-2v2h-2v2h-2v2h-2v2h-2v2h-2v2h-2v2H288z M426,160h-2v-2h-2v-2h-2v-2h-2v-2h-2v-2h-2v-2h-2
			v-2h-2v-2h-2v-2h-2v-2h-2v-2h-2v-2h-2v-2h-2v-2h-2v-2h-2v-2h-2v-2h-2v-2h-2v-2h-2v-2h-2v-2h-2v-2h-2v-2h-2v-2h-2v-2h-2v-2h-2v-2
			h-2v-2h-2v-2h-2v-2h-2v-2h2v-2h2v-2h2v-2h2v-2h2v-2h2v-2h2v-2h2v-2h2v-2h2v-2h2v-2h2v-2h2v-2h2v-2h2v-2h2v-2h2v-2h2v-2h2v-2h2v-2
			h2v-2h2v-2h2v-2h2v-2h2v-2h2v-2h2v-2h2v-2h2v-2h2v-2h2v-2h2v-2h-42v2h-2v2h-2v2h-2v2h-2v2h-2v2h-2v2h-2v2h-2v2h-2v2h-2v2h-2v2h-2
			v2h-2v2h-2v2h-2v2h-2v2h-4V54V36v-2h-30v2v18v18v18v18v18v18v18v2h30v-2v-18v-16h4v2h2v2h2v2h2v2h2v2h2v2h2v2h2v2h2v2h2v2h2v2h2v2
			h2v2h2v2h2v2h2v2h2v2h2v2h40v-2h-2V160z M178,158v-2h2v-2h2v-2h2v-2h2v-2h2v-2h2v-2h2v-2h2v-2h2v-2h2v-2h2v-2h2v-2h2v-2h2v-2h2v-2
			h2v-2h2v-2h2v-2h2v-2h2v-2h2v-2h2v-2h2v-2h2v-2h2v-2h2v-2h2v-2h2v-2h2v-2h2v-2h2v-2h2v-2h2v-2h2v-2h2v-2h2v-2h2v-2h2v-2h2v-2h2v-2
			h2v-2h2v-2h2v-2h2v-2h2v-2h2v-2h2v-2h2v-2h2v-2h2v-2h2v-2h2v-2h2v-2h2v-2h2v-2h2v-2h2v-2h2v-2h2v-2h2v-2h2v-2h-58v2h-2v2h-2v2h-2
			v2h-2v2h-2v2h-2v2h-2v2h-2v2h-2v2h-2v2h-2v2h-2v2h-2v2h-2v2h-2v2h-2v2h-2v2h-2v2h-38v-2h2v-2h2v-2h2v-2h2v-2h2v-2h2v-2h2v-2h2v-2
			h2v-2h2v-2h2v-2h2v-2h2v-2h2v-2h2v-2h2v-2h2v-2h2v-2h2v-2h-58v2h-2v2h-2v2h-2v2h-2v2h-2v2h-2v2h-2v2h-2v2h-2v2h-2v2h-2v2h-2v2h-2
			v2h-2v2h-2v2h-2v2h-2v2h-2v2h-2v2h-2v2h-2v2h-2v2h-2v2h-2v2h-2v2h-2v2h-2v2h-2v2h-2v2h-2v2h-2v2h-2v2h-2v2h-2v2h-2v2h-2v2h-2v2h-2
			v2h-2v2h-2v2h-2v2h-2v2h-2v2h-2v2h-2v2h-2v2h-2v2h-2v2h-2v2h-2v2h-2v2h-2v2h-2v2h-2v2h-2v2h-2v2h-2v2h-2v2h-2v2h-2v2h-2v2h-2v2h-2
			v2h-2v2h58v-2h2v-2h2v-2h2v-2h2v-2h2v-2h2v-2h2v-2h2v-2h2v-2h2v-2h2v-2h2v-2h2v-2h2v-2h2v-2h2v-2h2v-2h2v-2h2v-2h2v-2h2v-2h2v-2h2
			v-2h2v-2h2v-2h2v-2h2v-2h2v-2h2v-2h2v-2h2v-2h2v-2h2v-2h2v-2h2v-2h2v-2h2v-2h38v2h-2v2h-2v2h-2v2h-2v2h-2v2h-2v2h-2v2h-2v2h-2v2
			h-2v2h-2v2h-2v2h-2v2h-2v2h-2v2h-2v2h-2v2h-2v2h-2v2h-2v2h-2v2h-2v2h-2v2h-2v2h-2v2h-2v2h-2v2h-2v2h-2v2h-2v2h-2v2h-2v2h-2v2h-2v2
			h-2v2h-2v2h-2v2h58v-2h2v-2H178z M512,144h-2v2h-2v2h-2v2h-2v2h-2v2h-2v2h-2v2h-2v2h-2v2h-2v2h22v-2v-20h-2V144z M492,150h2v-2h2
			v-2h2v-2h2v-2h2v-2h2v-2h2v-2h2v-2h2v-2h2v-2h-28v2h-2v2h-2v2h-2v2h-2v2h-30v-2h-2v-2h-2v-2h-2v-2h-2v-2h-2v-2h-2v-2v-18V92h2v-2
			h2v-2h2v-2h2v-2h2v-2h2v-2h34v-8V56h-44v2h-2v2h-2v2h-2v2h-2v2h-2v2h-2v2h-2v2h-2v2h-2v2h-2v2h-2v2h-2v2h-2v2h-2v2h-2v4v18v18v14
			h2v2h2v2h2v2h2v2h2v2h2v2h2v2h2v2h2v2h2v2h2v2h2v2h50v-2h2v-2h2v-2h2v-2h2v-2h2v-2h2V150z"/>
	</g>
	<path class="st6" d="M526,34h26v2v18v18v18v18v18v18v18v2h-26v-2v-18v-18v-18V92h-12v16v14h-26v-14V90V72V54V36v-2h26v2v18v18v10
		h12V72V54V36V34z M560,34v2v18v6h26v-6V36v-2H560z M512,144h-2v2h-2v2h-2v2h-2v2h-2v2h-2v2h-2v2h-2v2h-2v2h-2v2h22v-2v-20h-2V144z
		 M560,72v18v18v18v18v18v2h26v-2v-18v-18v-18V90V72v-4h-26V72z M178,158v-2h2v-2h2v-2h2v-2h2v-2h2v-2h2v-2h2v-2h2v-2h2v-2h2v-2h2
		v-2h2v-2h2v-2h2v-2h2v-2h2v-2h2v-2h2v-2h2v-2h2v-2h2v-2h2v-2h2v-2h2v-2h2v-2h2v-2h2v-2h2v-2h2v-2h2v-2h2v-2h2v-2h2v-2h2v-2h2v-2h2
		v-2h2v-2h2v-2h2v-2h2v-2h2v-2h2v-2h2v-2h2v-2h2v-2h2v-2h2v-2h2v-2h2v-2h2v-2h2v-2h2v-2h2v-2h2v-2h2v-2h2v-2h2v-2h2v-2h2v-2h2v-2h2
		v-2h-58v2h-2v2h-2v2h-2v2h-2v2h-2v2h-2v2h-2v2h-2v2h-2v2h-2v2h-2v2h-2v2h-2v2h-2v2h-2v2h-2v2h-2v2h-2v2h-38v-2h2v-2h2v-2h2v-2h2v-2
		h2v-2h2v-2h2v-2h2v-2h2v-2h2v-2h2v-2h2v-2h2v-2h2v-2h2v-2h2v-2h2v-2h2v-2h2v-2h-58v2h-2v2h-2v2h-2v2h-2v2h-2v2h-2v2h-2v2h-2v2h-2v2
		h-2v2h-2v2h-2v2h-2v2h-2v2h-2v2h-2v2h-2v2h-2v2h-2v2h-2v2h-2v2h-2v2h-2v2h-2v2h-2v2h-2v2h-2v2h-2v2h-2v2h-2v2h-2v2h-2v2h-2v2h-2v2
		h-2v2h-2v2h-2v2h-2v2h-2v2h-2v2h-2v2h-2v2h-2v2h-2v2h-2v2h-2v2h-2v2h-2v2h-2v2h-2v2h-2v2h-2v2h-2v2h-2v2h-2v2h-2v2h-2v2h-2v2h-2v2
		h-2v2h-2v2h-2v2h-2v2h-2v2h58v-2h2v-2h2v-2h2v-2h2v-2h2v-2h2v-2h2v-2h2v-2h2v-2h2v-2h2v-2h2v-2h2v-2h2v-2h2v-2h2v-2h2v-2h2v-2h2v-2
		h2v-2h2v-2h2v-2h2v-2h2v-2h2v-2h2v-2h2v-2h2v-2h2v-2h2v-2h2v-2h2v-2h2v-2h2v-2h2v-2h2v-2h2v-2h38v2h-2v2h-2v2h-2v2h-2v2h-2v2h-2v2
		h-2v2h-2v2h-2v2h-2v2h-2v2h-2v2h-2v2h-2v2h-2v2h-2v2h-2v2h-2v2h-2v2h-2v2h-2v2h-2v2h-2v2h-2v2h-2v2h-2v2h-2v2h-2v2h-2v2h-2v2h-2v2
		h-2v2h-2v2h-2v2h-2v2h-2v2h-2v2h58v-2h2v-2H178z M492,150h2v-2h2v-2h2v-2h2v-2h2v-2h2v-2h2v-2h2v-2h2v-2h2v-2h-28v2h-2v2h-2v2h-2v2
		h-2v2h-30v-2h-2v-2h-2v-2h-2v-2h-2v-2h-2v-2h-2v-2v-18V92h2v-2h2v-2h2v-2h2v-2h2v-2h2v-2h34v-8V56h-44v2h-2v2h-2v2h-2v2h-2v2h-2v2
		h-2v2h-2v2h-2v2h-2v2h-2v2h-2v2h-2v2h-2v2h-2v2h-2v4v18v18v14h2v2h2v2h2v2h2v2h2v2h2v2h2v2h2v2h2v2h2v2h2v2h2v2h50v-2h2v-2h2v-2h2
		v-2h2v-2h2v-2h2V150z M316,20h2v16v18v18v18v18v18v18v18v18h-30v-18v-18v-4h-52v2h-2v2h-2v2h-2v2h-2v2h-2v2h-2v2h-2v2h-2v2h-2v2h-2
		v2h-40v-2h2v-2h2v-2h2v-2h2v-2h2v-2h2v-2h2v-2h2v-2h2v-2h2v-2h2v-2h2v-2h2v-2h2v-2h2v-2h2v-2h2v-2h2v-2h2v-2h2v-2h2v-2h2v-2h2v-2h2
		v-2h2v-2h2v-2h2v-2h2v-2h2v-2h2v-2h2v-2h2v-2h2v-2h2v-2h2v-2h2v-2h2v-2h2v-2h2v-2h2v-2h2v-2h2v-2h2v-2h2v-2h2v-2h2v-2h2v-2h2v-2h2
		v-2h2v-2h2v-2h2v-2h2v-2h2v-2h2v-2h2v-2h2v-2h2v-2h2v-2h2v-2h2v-2h2v-2h2v-2h2v-2h2v-2h2v-2h2v-2h2v-2h2v-2h2V20z M288,128v-2v-18
		V90h-2v2h-2v2h-2v2h-2v2h-2v2h-2v2h-2v2h-2v2h-2v2h-2v2h-2v2h-2v2h-2v2h-2v2h-2v2h-2v2h-2v2h-2v2h-2v2H288z M426,160h-2v-2h-2v-2
		h-2v-2h-2v-2h-2v-2h-2v-2h-2v-2h-2v-2h-2v-2h-2v-2h-2v-2h-2v-2h-2v-2h-2v-2h-2v-2h-2v-2h-2v-2h-2v-2h-2v-2h-2v-2h-2v-2h-2v-2h-2v-2
		h-2v-2h-2v-2h-2v-2h-2v-2h-2v-2h-2v-2h-2v-2h-2v-2h2v-2h2v-2h2v-2h2v-2h2v-2h2v-2h2v-2h2v-2h2v-2h2v-2h2v-2h2v-2h2v-2h2v-2h2v-2h2
		v-2h2v-2h2v-2h2v-2h2v-2h2v-2h2v-2h2v-2h2v-2h2v-2h2v-2h2v-2h2v-2h2v-2h2v-2h2v-2h2v-2h-42v2h-2v2h-2v2h-2v2h-2v2h-2v2h-2v2h-2v2
		h-2v2h-2v2h-2v2h-2v2h-2v2h-2v2h-2v2h-2v2h-2v2h-4V54V36v-2h-30v2v18v18v18v18v18v18v18v2h30v-2v-18v-16h4v2h2v2h2v2h2v2h2v2h2v2h2
		v2h2v2h2v2h2v2h2v2h2v2h2v2h2v2h2v2h2v2h2v2h2v2h40v-2h-2V160z"/>
	<path class="st7" d="M560,68h26v4v18v18v18v18v18h-26v-18v-18v-18V90V72V68z M560,34v2v18v6h26v-6V36v-2H560z M526,36v18v18v10h-12
		V72V54V36v-2h-26v2v18v18v18v18v14h26v-14V92h12v16v18v18v18h26v-18v-18v-18V90V72V54V36v-2h-26V36z M316,20h2v16v18v18v18v18v18
		v18v18h-30v-18v-4h-52v2h-2v2h-2v2h-2v2h-2v2h-2v2h-2v2h-2v2h-2v2h-2v2h-2v2h-40v-2h2v-2h2v-2h2v-2h2v-2h2v-2h2v-2h2v-2h2v-2h2v-2
		h2v-2h2v-2h2v-2h2v-2h2v-2h2v-2h2v-2h2v-2h2v-2h2v-2h2v-2h2v-2h2v-2h2v-2h2v-2h2v-2h2v-2h2v-2h2v-2h2v-2h2v-2h2v-2h2v-2h2v-2h2v-2
		h2v-2h2v-2h2v-2h2v-2h2v-2h2v-2h2v-2h2v-2h2v-2h2v-2h2v-2h2v-2h2v-2h2v-2h2v-2h2v-2h2v-2h2v-2h2v-2h2v-2h2v-2h2v-2h2v-2h2v-2h2v-2
		h2v-2h2v-2h2v-2h2v-2h2v-2h2v-2h2v-2h2v-2h2v-2h2v-2h2V20z M288,128v-2v-18V90h-2v2h-2v2h-2v2h-2v2h-2v2h-2v2h-2v2h-2v2h-2v2h-2v2
		h-2v2h-2v2h-2v2h-2v2h-2v2h-2v2h-2v2h-2v2h-2v2H288z M512,144h-2v2h-2v2h-2v2h-2v2h-2v2h-2v2h-2v2h-2v2h-2v2h20v-20h-2V144z
		 M494,148h2v-2h2v-2h2v-2h2v-2h2v-2h2v-2h2v-2h2v-2h2v-2h-28v2h-2v2h-2v2h-2v2h-2v2h-30v-2h-2v-2h-2v-2h-2v-2h-2v-2h-2v-2h-2v-2
		v-18V92h2v-2h2v-2h2v-2h2v-2h2v-2h2v-2h34v-8V56h-44v2h-2v2h-2v2h-2v2h-2v2h-2v2h-2v2h-2v2h-2v2h-2v2h-2v2h-2v2h-2v2h-2v2h-2v2h-2
		v4v18v18v14h2v2h2v2h2v2h2v2h2v2h2v2h2v2h2v2h2v2h2v2h2v2h54v-2h2v-2h2v-2h2v-2h2v-2h2v-2h2V148z M424,158h-2v-2h-2v-2h-2v-2h-2v-2
		h-2v-2h-2v-2h-2v-2h-2v-2h-2v-2h-2v-2h-2v-2h-2v-2h-2v-2h-2v-2h-2v-2h-2v-2h-2v-2h-2v-2h-2v-2h-2v-2h-2v-2h-2v-2h-2v-2h-2v-2h-2v-2
		h-2v-2h-2v-2h-2v-2h-2v-2h-2v-2h2v-2h2v-2h2v-2h2v-2h2v-2h2v-2h2v-2h2v-2h2v-2h2v-2h2v-2h2v-2h2v-2h2v-2h2v-2h2v-2h2v-2h2v-2h2v-2
		h2v-2h2v-2h2v-2h2v-2h2v-2h2v-2h2v-2h2v-2h2v-2h2v-2h2v-2h2v-2h2v-2h-42v2h-2v2h-2v2h-2v2h-2v2h-2v2h-2v2h-2v2h-2v2h-2v2h-2v2h-2v2
		h-2v2h-2v2h-2v2h-2v2h-2v2h-4V54V36v-2h-30v2v18v18v18v18v18v18v18h30v-18v-16h4v2h2v2h2v2h2v2h2v2h2v2h2v2h2v2h2v2h2v2h2v2h2v2h2
		v2h2v2h2v2h2v2h2v2h40v-2h-2V158z M178,158v-2h2v-2h2v-2h2v-2h2v-2h2v-2h2v-2h2v-2h2v-2h2v-2h2v-2h2v-2h2v-2h2v-2h2v-2h2v-2h2v-2h2
		v-2h2v-2h2v-2h2v-2h2v-2h2v-2h2v-2h2v-2h2v-2h2v-2h2v-2h2v-2h2v-2h2v-2h2v-2h2v-2h2v-2h2v-2h2v-2h2v-2h2v-2h2v-2h2v-2h2v-2h2v-2h2
		v-2h2v-2h2v-2h2v-2h2v-2h2v-2h2v-2h2v-2h2v-2h2v-2h2v-2h2v-2h2v-2h2v-2h2v-2h2v-2h2v-2h2v-2h2v-2h2v-2h-58v2h-2v2h-2v2h-2v2h-2v2
		h-2v2h-2v2h-2v2h-2v2h-2v2h-2v2h-2v2h-2v2h-2v2h-2v2h-2v2h-2v2h-2v2h-2v2h-38v-2h2v-2h2v-2h2v-2h2v-2h2v-2h2v-2h2v-2h2v-2h2v-2h2
		v-2h2v-2h2v-2h2v-2h2v-2h2v-2h2v-2h2v-2h2v-2h2v-2h-58v2h-2v2h-2v2h-2v2h-2v2h-2v2h-2v2h-2v2h-2v2h-2v2h-2v2h-2v2h-2v2h-2v2h-2v2
		h-2v2h-2v2h-2v2h-2v2h-2v2h-2v2h-2v2h-2v2h-2v2h-2v2h-2v2h-2v2h-2v2h-2v2h-2v2h-2v2h-2v2h-2v2h-2v2h-2v2h-2v2h-2v2h-2v2h-2v2h-2v2
		h-2v2h-2v2h-2v2h-2v2h-2v2h-2v2h-2v2h-2v2h-2v2h-2v2h-2v2h-2v2h-2v2h-2v2h-2v2h-2v2h-2v2h-2v2h-2v2h-2v2h-2v2h-2v2h-2v2h-2v2h-2v2
		h58v-2h2v-2h2v-2h2v-2h2v-2h2v-2h2v-2h2v-2h2v-2h2v-2h2v-2h2v-2h2v-2h2v-2h2v-2h2v-2h2v-2h2v-2h2v-2h2v-2h2v-2h2v-2h2v-2h2v-2h2v-2
		h2v-2h2v-2h2v-2h2v-2h2v-2h2v-2h2v-2h2v-2h2v-2h2v-2h2v-2h2v-2h2v-2h38v2h-2v2h-2v2h-2v2h-2v2h-2v2h-2v2h-2v2h-2v2h-2v2h-2v2h-2v2
		h-2v2h-2v2h-2v2h-2v2h-2v2h-2v2h-2v2h-2v2h-2v2h-2v2h-2v2h-2v2h-2v2h-2v2h-2v2h-2v2h-2v2h-2v2h-2v2h-2v2h-2v2h-2v2h-2v2h-2v2h-2v2
		h-2v2h58v-2h2v-2H178z"/>
	<path class="st8" d="M526,34h26v2v18v18v18v18v18v18h-26v-18v-18V92h-12v16v14h-26v-14V90V72V54V36v-2h26v2v18v18v10h12V72V54V36
		V34z M560,34v2v18v6h26v-6V36v-2H560z M560,72v18v18v18v18h26v-18v-18V90V72v-4h-26V72z M316,20h2v16v18v18v18v18v18v18h-30v-4h-52
		v2h-2v2h-40v-2h2v-2h2v-2h2v-2h2v-2h2v-2h2v-2h2v-2h2v-2h2v-2h2v-2h2v-2h2v-2h2v-2h2v-2h2v-2h2v-2h2v-2h2v-2h2v-2h2v-2h2v-2h2v-2h2
		v-2h2v-2h2v-2h2v-2h2v-2h2v-2h2v-2h2v-2h2v-2h2v-2h2v-2h2v-2h2v-2h2v-2h2v-2h2v-2h2v-2h2v-2h2v-2h2v-2h2v-2h2v-2h2v-2h2v-2h2v-2h2
		v-2h2v-2h2v-2h2v-2h2v-2h2v-2h2v-2h2v-2h2v-2h2v-2h2v-2h2v-2h2v-2h2V20z M288,126v-18V90h-2v2h-2v2h-2v2h-2v2h-2v2h-2v2h-2v2h-2v2
		h-2v2h-2v2h-2v2h-2v2h-2v2h-2v2h-2v2h-2v2h-2v2h-2v2h-2v2h38V126z M196,140v-2h2v-2h2v-2h2v-2h2v-2h2v-2h2v-2h2v-2h2v-2h2v-2h2v-2
		h2v-2h2v-2h2v-2h2v-2h2v-2h2v-2h2v-2h2v-2h2v-2h2v-2h2v-2h2v-2h2v-2h2v-2h2v-2h2v-2h2v-2h2v-2h2v-2h2v-2h2v-2h2v-2h2v-2h2v-2h2v-2
		h2v-2h2v-2h2v-2h2v-2h2v-2h2v-2h2v-2h2v-2h2v-2h2v-2h2v-2h2v-2h2v-2h2v-2h2v-2h2v-2h2v-2h-58v2h-2v2h-2v2h-2v2h-2v2h-2v2h-2v2h-2v2
		h-2v2h-2v2h-2v2h-2v2h-2v2h-2v2h-2v2h-2v2h-2v2h-2v2h-2v2h-38v-2h2v-2h2v-2h2v-2h2v-2h2v-2h2v-2h2v-2h2v-2h2v-2h2v-2h2v-2h2v-2h2
		v-2h2v-2h2v-2h2v-2h2v-2h2v-2h2v-2h-58v2h-2v2h-2v2h-2v2h-2v2h-2v2h-2v2h-2v2h-2v2h-2v2h-2v2h-2v2h-2v2h-2v2h-2v2h-2v2h-2v2h-2v2
		h-2v2h-2v2h-2v2h-2v2h-2v2h-2v2h-2v2h-2v2h-2v2h-2v2h-2v2h-2v2h-2v2h-2v2h-2v2h-2v2h-2v2h-2v2h-2v2h-2v2h-2v2h-2v2h-2v2h-2v2h-2v2
		h-2v2h-2v2h-2v2h-2v2h-2v2h-2v2h-2v2h-2v2h-2v2h-2v2h-2v2h-2v2h-2v2h58v-2h2v-2h2v-2h2v-2h2v-2h2v-2h2v-2h2v-2h2v-2h2v-2h2v-2h2v-2
		h2v-2h2v-2h2v-2h2v-2h2v-2h2v-2h2v-2h2v-2h2v-2h2v-2h2v-2h2v-2h2v-2h2v-2h2v-2h2v-2h2v-2h38v2h-2v2h-2v2h-2v2h-2v2h-2v2h-2v2h-2v2
		h-2v2h-2v2h-2v2h-2v2h-2v2h-2v2h-2v2h-2v2h-2v2h-2v2h-2v2h-2v2h-2v2h-2v2h-2v2h-2v2h-2v2h-2v2h-2v2h-2v2h-2v2h58v-2h2v-2H196z
		 M484,132h-2v2h-2v2h-2v2h-2v2h-30v-2h-2v-2h-2v-2h-2v-2h-2v-2h-2v-2h-2v-2v-18V92h2v-2h2v-2h2v-2h2v-2h2v-2h2v-2h34v-8V56h-44v2
		h-2v2h-2v2h-2v2h-2v2h-2v2h-2v2h-2v2h-2v2h-2v2h-2v2h-2v2h-2v2h-2v2h-2v2h-2v4v18v18v14h2v2h2v2h90v-2h2v-2h2v-2h2v-2h2v-2h2v-2h2
		v-2h-28V132z M406,140h-2v-2h-2v-2h-2v-2h-2v-2h-2v-2h-2v-2h-2v-2h-2v-2h-2v-2h-2v-2h-2v-2h-2v-2h-2v-2h-2v-2h-2v-2h-2v-2h-2v-2h-2
		v-2h-2v-2h-2v-2h-2v-2h2v-2h2v-2h2v-2h2v-2h2v-2h2v-2h2v-2h2v-2h2v-2h2v-2h2v-2h2v-2h2v-2h2v-2h2v-2h2v-2h2v-2h2v-2h2v-2h2v-2h2v-2
		h2v-2h2v-2h2v-2h2v-2h2v-2h2v-2h2v-2h2v-2h2v-2h2v-2h2v-2h-42v2h-2v2h-2v2h-2v2h-2v2h-2v2h-2v2h-2v2h-2v2h-2v2h-2v2h-2v2h-2v2h-2v2
		h-2v2h-2v2h-2v2h-4V54V36v-2h-30v2v18v18v18v18v18v18h30v-16h4v2h2v2h2v2h2v2h2v2h2v2h2v2h2v2h40v-2h-2V140z"/>
	<path class="st9" d="M560,68h26v4v18v18v18h-26v-18V90V72V68z M526,36v18v18v10h-12V72V54V36v-2h-26v2v18v18v18v18v14h26v-14V92h12
		v16v18h26v-18V90V72V54V36v-2h-26V36z M560,34v2v18v6h26v-6V36v-2H560z M406,56h2v-2h2v-2h2v-2h2v-2h2v-2h2v-2h2v-2h2v-2h2v-2h2v-2
		h2v-2h-42v2h-2v2h-2v2h-2v2h-2v2h-2v2h-2v2h-2v2h-2v2h-2v2h-2v2h-2v2h-2v2h-2v2h-2v2h-2v2h-2v2h-4V54V36v-2h-30v2v18v18v18v18v18
		h70v-2h-2v-2h-2v-2h-2v-2h-2v-2h-2v-2h-2v-2h-2v-2h-2v-2h-2v-2h-2v-2h-2v-2h-2v-2h-2v-2h2v-2h2v-2h2v-2h2v-2h2v-2h2v-2h2v-2h2v-2h2
		v-2h2v-2h2v-2h2v-2h2v-2h2v-2h2v-2h2v-2h2v-2h2v-2h2v-2h2v-2h2V56z M316,22h-2v2h-2v2h-2v2h-2v2h-2v2h-2v2h-2v2h-2v2h-2v2h-2v2h-2
		v2h-2v2h-2v2h-2v2h-2v2h-2v2h-2v2h-2v2h-2v2h-2v2h-2v2h-2v2h-2v2h-2v2h-2v2h-2v2h-2v2h-2v2h-2v2h-2v2h-2v2h-2v2h-2v2h-2v2h-2v2h-2
		v2h-2v2h-2v2h-2v2h-2v2h-2v2h-2v2h-2v2h-2v2h-2v2h-2v2h-2v2h-2v2h-2v2h-2v2h-2v2h-2v2h40v-2h2v-2h2v-2h2v-2h2v-2h2v-2h2v-2h2v-2h2
		v-2h2v-2h2v-2h2v-2h2v-2h2v-2h2v-2h2v-2h2v-2h2v-2h2v18v18h30v-18V90V72V54V36V20h-2V22z M436,58h-2v2h-2v2h-2v2h-2v2h-2v2h-2v2h-2
		v2h-2v2h-2v2h-2v2h-2v2h-2v2h-2v2h-2v2h-2v4v18v18h28v-18V92h2v-2h2v-2h2v-2h2v-2h2v-2h2v-2h34v-8V56h-44V58z M214,122v-2h2v-2h2
		v-2h2v-2h2v-2h2v-2h2v-2h2v-2h2v-2h2v-2h2v-2h2v-2h2v-2h2v-2h2v-2h2v-2h2v-2h2v-2h2v-2h2v-2h2v-2h2v-2h2v-2h2v-2h2v-2h2v-2h2v-2h2
		v-2h2v-2h2v-2h2v-2h2v-2h2v-2h2v-2h2v-2h2v-2h2v-2h2v-2h2v-2h2v-2h2v-2h2v-2h2v-2h2v-2h-58v2h-2v2h-2v2h-2v2h-2v2h-2v2h-2v2h-2v2
		h-2v2h-2v2h-2v2h-2v2h-2v2h-2v2h-2v2h-2v2h-2v2h-2v2h-2v2h-38v-2h2v-2h2v-2h2v-2h2v-2h2v-2h2v-2h2v-2h2v-2h2v-2h2v-2h2v-2h2v-2h2
		v-2h2v-2h2v-2h2v-2h2v-2h2v-2h2v-2h-58v2h-2v2h-2v2h-2v2h-2v2h-2v2h-2v2h-2v2h-2v2h-2v2h-2v2h-2v2h-2v2h-2v2h-2v2h-2v2h-2v2h-2v2
		h-2v2h-2v2h-2v2h-2v2h-2v2h-2v2h-2v2h-2v2h-2v2h-2v2h-2v2h-2v2h-2v2h-2v2h-2v2h-2v2h-2v2h-2v2h-2v2h-2v2h-2v2h-2v2h-2v2h-2v2h-2v2
		h-2v2h-2v2h-2v2h-2v2h58v-2h2v-2h2v-2h2v-2h2v-2h2v-2h2v-2h2v-2h2v-2h2v-2h2v-2h2v-2h2v-2h2v-2h2v-2h2v-2h2v-2h2v-2h2v-2h2v-2h38v2
		h-2v2h-2v2h-2v2h-2v2h-2v2h-2v2h-2v2h-2v2h-2v2h-2v2h-2v2h-2v2h-2v2h-2v2h-2v2h-2v2h-2v2h-2v2h-2v2h58v-2h2v-2H214z"/>
	<path class="st10" d="M560,68h26v4v18v18h-26V90V72V68z M560,34v2v18v6h26v-6V36v-2H560z M526,36v18v18v10h-12V72V54V36v-2h-26v2
		v18v18v18v18h26V92h12v16h26V90V72V54V36v-2h-26V36z M316,22h-2v2h-2v2h-2v2h-2v2h-2v2h-2v2h-2v2h-2v2h-2v2h-2v2h-2v2h-2v2h-2v2h-2
		v2h-2v2h-2v2h-2v2h-2v2h-2v2h-2v2h-2v2h-2v2h-2v2h-2v2h-2v2h-2v2h-2v2h-2v2h-2v2h-2v2h-2v2h-2v2h-2v2h-2v2h-2v2h-2v2h-2v2h-2v2h-2
		v2h-2v2h-2v2h-2v2h-2v2h40v-2h2v-2h2v-2h2v-2h2v-2h2v-2h2v-2h2v-2h2v-2h2v18h30V90V72V54V36V20h-2V22z M436,58h-2v2h-2v2h-2v2h-2v2
		h-2v2h-2v2h-2v2h-2v2h-2v2h-2v2h-2v2h-2v2h-2v2h-2v2h-2v4v18h28V92h2v-2h2v-2h2v-2h2v-2h2v-2h2v-2h34v-8V56h-44V58z M406,56h2v-2h2
		v-2h2v-2h2v-2h2v-2h2v-2h2v-2h2v-2h2v-2h2v-2h2v-2h-42v2h-2v2h-2v2h-2v2h-2v2h-2v2h-2v2h-2v2h-2v2h-2v2h-2v2h-2v2h-2v2h-2v2h-2v2
		h-2v2h-2v2h-4V54V36v-2h-30v2v18v18v18v18h52v-2h-2v-2h-2v-2h-2v-2h-2v-2h2v-2h2v-2h2v-2h2v-2h2v-2h2v-2h2v-2h2v-2h2v-2h2v-2h2v-2
		h2v-2h2v-2h2v-2h2v-2h2v-2h2v-2h2v-2h2v-2h2v-2h2V56z M232,104v-2h2v-2h2v-2h2v-2h2v-2h2v-2h2v-2h2v-2h2v-2h2v-2h2v-2h2v-2h2v-2h2
		v-2h2v-2h2v-2h2v-2h2v-2h2v-2h2v-2h2v-2h2v-2h2v-2h2v-2h2v-2h2v-2h2v-2h2v-2h2v-2h2v-2h2v-2h2v-2h2v-2h2v-2h2v-2h-58v2h-2v2h-2v2
		h-2v2h-2v2h-2v2h-2v2h-2v2h-2v2h-2v2h-2v2h-2v2h-2v2h-2v2h-2v2h-2v2h-2v2h-2v2h-2v2h-38v-2h2v-2h2v-2h2v-2h2v-2h2v-2h2v-2h2v-2h2
		v-2h2v-2h2v-2h2v-2h2v-2h2v-2h2v-2h2v-2h2v-2h2v-2h2v-2h2v-2h-58v2h-2v2h-2v2h-2v2h-2v2h-2v2h-2v2h-2v2h-2v2h-2v2h-2v2h-2v2h-2v2
		h-2v2h-2v2h-2v2h-2v2h-2v2h-2v2h-2v2h-2v2h-2v2h-2v2h-2v2h-2v2h-2v2h-2v2h-2v2h-2v2h-2v2h-2v2h-2v2h-2v2h-2v2h-2v2h-2v2h-2v2h-2v2
		h58v-2h2v-2h2v-2h2v-2h2v-2h2v-2h2v-2h2v-2h2v-2h2v-2h2v-2h38v2h-2v2h-2v2h-2v2h-2v2h-2v2h-2v2h-2v2h-2v2h-2v2h-2v2h58v-2h2v-2H232
		z"/>
	<path class="st11" d="M526,34h26v2v18v18v18h-64V72V54V36v-2h26v2v18v18v10h12V72V54V36V34z M560,72v18h26V72v-4h-26V72z M560,34v2
		v18v6h26v-6V36v-2H560z M436,58h-2v2h-2v2h-2v2h-2v2h-2v2h-2v2h-2v2h-2v2h-2v2h-2v2h-2v2h-2v2h-2v2h-2v2h-2v4h32v-2h2v-2h2v-2h2v-2
		h2v-2h34v-8V56h-44V58z M316,22h-2v2h-2v2h-2v2h-2v2h-2v2h-2v2h-2v2h-2v2h-2v2h-2v2h-2v2h-2v2h-2v2h-2v2h-2v2h-2v2h-2v2h-2v2h-2v2
		h-2v2h-2v2h-2v2h-2v2h-2v2h-2v2h-2v2h-2v2h-2v2h-2v2h-2v2h-2v2h-2v2h-2v2h-2v2h70V72V54V36V20h-2V22z M406,56h2v-2h2v-2h2v-2h2v-2
		h2v-2h2v-2h2v-2h2v-2h2v-2h2v-2h2v-2h-42v2h-2v2h-2v2h-2v2h-2v2h-2v2h-2v2h-2v2h-2v2h-2v2h-2v2h-2v2h-2v2h-2v2h-2v2h-2v2h-2v2h-4
		V54V36v-2h-30v2v18v18v18h54v-2h2v-2h2v-2h2v-2h2v-2h2v-2h2v-2h2v-2h2v-2h2v-2h2v-2h2v-2h2v-2h2v-2h2v-2h2v-2h2V56z M250,86v-2h2
		v-2h2v-2h2v-2h2v-2h2v-2h2v-2h2v-2h2v-2h2v-2h2v-2h2v-2h2v-2h2v-2h2v-2h2v-2h2v-2h2v-2h2v-2h2v-2h2v-2h2v-2h2v-2h2v-2h2v-2h2v-2
		h-58v2h-2v2h-2v2h-2v2h-2v2h-2v2h-2v2h-2v2h-2v2h-2v2h-2v2h-2v2h-2v2h-2v2h-2v2h-2v2h-2v2h-2v2h-2v2h-38v-2h2v-2h2v-2h2v-2h2v-2h2
		v-2h2v-2h2v-2h2v-2h2v-2h2v-2h2v-2h2v-2h2v-2h2v-2h2v-2h2v-2h2v-2h2v-2h2v-2h-58v2h-2v2h-2v2h-2v2h-2v2h-2v2h-2v2h-2v2h-2v2h-2v2
		h-2v2h-2v2h-2v2h-2v2h-2v2h-2v2h-2v2h-2v2h-2v2h-2v2h-2v2h-2v2h-2v2h-2v2h-2v2h-2v2h-2v2h-2v2h-2v2h58v-2h2v-2h38v2h-2v2h58v-2h2
		v-2H250z"/>
	<path class="st12" d="M586,34v2v18v6h-26v-6V36v-2H586z M526,36v18v18h26V54V36v-2h-26V36z M488,36v18v18h26V54V36v-2h-26V36z
		 M206,32h-58v2h-2v2h-2v2h-2v2h-2v2h-2v2h-2v2h-2v2h-2v2h-2v2h-2v2h-2v2h-2v2h-2v2h-2v2h-2v2h-2v2h-2v2h-2v2h-2v2h58v-2h2v-2h2v-2
		h2v-2h2v-2h2v-2h2v-2h2v-2h2v-2h2v-2h2v-2h2v-2h2v-2h2v-2h2v-2h2v-2h2v-2h2v-2h2v-2h2V32z M422,40h2v-2h2v-2h2v-2h-42v2h-2v2h-2v2
		h-2v2h-2v2h-2v2h-2v2h-2v2h-2v2h-2v2h-2v2h-2v2h-2v2h-2v2h-2v2h-2v2h-2v2h-4V54V36v-2h-30v2v18v18h72v-2h2v-2h2v-2h2v-2h2v-2h2v-2
		h2v-2h2v-2h2v-2h2v-2h2v-2h2v-2h2v-2h2v-2h2v-2h2V40z M316,22h-2v2h-2v2h-2v2h-2v2h-2v2h-2v2h-2v2h-2v2h-2v2h-2v2h-2v2h-2v2h-2v2
		h-2v2h-2v2h-2v2h-2v2h-2v2h-2v2h-2v2h-2v2h-2v2h-2v2h-2v2h-2v2h52V54V36V20h-2V22z M560,72h26v-4h-26V72z M268,68v-2h2v-2h2v-2h2
		v-2h2v-2h2v-2h2v-2h2v-2h2v-2h2v-2h2v-2h2v-2h2v-2h2v-2h2v-2h2v-2h2v-2h-58v2h-2v2h-2v2h-2v2h-2v2h-2v2h-2v2h-2v2h-2v2h-2v2h-2v2
		h-2v2h-2v2h-2v2h-2v2h-2v2h-2v2h-2v2h-2v2h58v-2h2v-2H268z M436,58h-2v2h-2v2h-2v2h-2v2h-2v2h-2v2h-2v2h58V56h-44V58z"/>
	<path class="st13" d="M148,32h58v2h-2v2h-2v2h-2v2h-2v2h-2v2h-2v2h-2v2h-2v2h-2v2h-2v2h-58v-2h2v-2h2v-2h2v-2h2v-2h2v-2h2v-2h2v-2
		h2v-2h2v-2h2V32z M526,36v18h26V36v-2h-26V36z M560,34v2v18h26V36v-2H560z M386,36h-2v2h-2v2h-2v2h-2v2h-2v2h-2v2h-2v2h-2v2h-2v2
		h42v-2h2v-2h2v-2h2v-2h2v-2h2v-2h2v-2h2v-2h2v-2h2v-2h-42V36z M488,36v18h26V36v-2h-26V36z M316,22h-2v2h-2v2h-2v2h-2v2h-2v2h-2v2
		h-2v2h-2v2h-2v2h-2v2h-2v2h-2v2h-2v2h-2v2h-2v2h-2v2h34V36V20h-2V22z M320,36v18h30V36v-2h-30V36z M286,50v-2h2v-2h2v-2h2v-2h2v-2
		h2v-2h2v-2h2v-2h-58v2h-2v2h-2v2h-2v2h-2v2h-2v2h-2v2h-2v2h-2v2h-2v2h58v-2h2v-2H286z"/>
	<path class="st14" d="M316,20h2v16h-16v-2h2v-2h2v-2h2v-2h2v-2h2v-2h2v-2h2V20z M148,32h58v2h-2v2h-58v-2h2V32z M242,34h58v2h-58
		V34z M320,34h30v2h-30V34z M386,34h42v2h-42V34z M488,34h26v2h-26V34z M526,34h26v2h-26V34z M560,34h26v2h-26V34z"/>
</g>
<path id="Inner_Shadow" class="st15" d="M316,20h2v8h-2v2h-2v2h-2v2h-2v2h-2v2h-2v2h-2v2h-2v2h-2v2h-2v2h-2v2h-2v2h-2v2h-2v2h-2v2
	h-2v2h-2v2h-2v2h-2v2h-2v2h-2v2h-2v2h-2v2h-2v2h-2v2h-2v2h-2v2h-2v2h-2v2h-2v2h-2v2h-2v2h-2v2h-2v2h-2v2h-2v2h-2v2h-2v2h-2v2h-2v2
	h-2v2h-2v2h-2v2h-2v2h-2v2h-2v2h-2v2h-2v2h-2v2h-2v2h-2v2h-2v2h-2v2h-2v2h-2v2h-2v2h-2v2h-2v2h-2v2h-2v2h-2v2h-2v2h-2v2h-2v2h-2v2
	h-2v2h-2v2h-8v-2h2v-2h2v-2h2v-2h2v-2h2v-2h2v-2h2v-2h2v-2h2v-2h2v-2h2v-2h2v-2h2v-2h2v-2h2v-2h2v-2h2v-2h2v-2h2v-2h2v-2h2v-2h2v-2
	h2v-2h2v-2h2v-2h2v-2h2v-2h2v-2h2v-2h2v-2h2v-2h2v-2h2v-2h2v-2h2v-2h2v-2h2v-2h2v-2h2v-2h2v-2h2v-2h2v-2h2v-2h2v-2h2v-2h2v-2h2v-2h2
	v-2h2v-2h2v-2h2v-2h2v-2h2v-2h2v-2h2v-2h2v-2h2v-2h2v-2h2v-2h2v-2h2v-2h2v-2h2v-2h2v-2h2v-2h2v-2h2v-2h2v-2h2v-2h2V20z M148,32h58v2
	h-2v2h-52v2h-2v2h-2v2h-2v2h-2v2h-2v2h-2v2h-2v2h-2v2h-2v2h-2v2h-2v2h-2v2h-2v2h-2v2h-2v2h-2v2h-2v2h-2v2h-2v2h-2v2h-2v2h-2v2h-2v2
	h-2v2h-2v2h-2v2h-2v2h-2v2h-2v2h-2v2h-2v2h-2v2h-2v2h-2v2h-2v2h-2v2h-2v2h-2v2h-2v2h-2v2h-2v2h-2v2h-2v2h-2v2h-2v2h-2v2h-2v2h-2v2
	h-2v2h-2v2h-2v2h-2v2h-2v2h-2v2h-2v2h-2v2h-2v2h-2v2h-2v2h-2v2h-2v2h-2v2h-8v-2h2v-2h2v-2h2v-2h2v-2h2v-2h2v-2h2v-2h2v-2h2v-2h2v-2
	h2v-2h2v-2h2v-2h2v-2h2v-2h2v-2h2v-2h2v-2h2v-2h2v-2h2v-2h2v-2h2v-2h2v-2h2v-2h2v-2h2v-2h2v-2h2v-2h2v-2h2v-2h2v-2h2v-2h2v-2h2v-2h2
	v-2h2v-2h2v-2h2v-2h2v-2h2v-2h2v-2h2v-2h2v-2h2v-2h2v-2h2v-2h2v-2h2v-2h2v-2h2v-2h2v-2h2v-2h2v-2h2v-2h2v-2h2v-2h2v-2h2v-2h2v-2h2
	v-2h2v-2h2v-2h2V32z M242,34h58v2h-2v2h-52v2h-2v2h-2v2h-2v2h-2v2h-2v2h-2v2h-2v2h-2v2h-2v2h-2v2h-2v2h-2v2h-2v2h-2v2h-2v2h-2v2h-2
	v2h-2v2h-38v-2h2v-2h32v-2h2v-2h2v-2h2v-2h2v-2h2v-2h2v-2h2v-2h2v-2h2v-2h2v-2h2v-2h2v-2h2v-2h2v-2h2v-2h2v-2h2v-2h2V34z M320,34h30
	v4h-26v126h-4V34z M386,34h42v2h-2v2h-36v2h-2v2h-2v2h-2v2h-2v2h-2v2h-2v2h-2v2h-2v2h-2v2h-2v2h-2v2h-2v2h-2v2h-2v2h-2v2h-2v2h-4v-6
	h2v-2h2v-2h2v-2h2v-2h2v-2h2v-2h2v-2h2v-2h2v-2h2v-2h2v-2h2v-2h2v-2h2v-2h2v-2h2V34z M488,34h26v4h-22v84h-4V34z M526,34h26v4h-22
	v48h-12v-4h8V34z M560,34h26v4h-22v22h-4V34z M436,56h44v4h-40v2h-2v2h-2v2h-2v2h-2v2h-2v2h-2v2h-2v2h-2v2h-2v2h-2v2h-2v2h-2v2h-2v2
	h-2v2h-2v52h-2v-2h-2V86h2v-2h2v-2h2v-2h2v-2h2v-2h2v-2h2v-2h2v-2h2v-2h2v-2h2v-2h2v-2h2v-2h2v-2h2V56z M560,68h26v4h-22v92h-4V68z
	 M186,90h8v2h-2v2h-2v2h-2v2h-2v2h-2v2h-2v2h-2v2h-2v2h-2v2h-2v2h-2v2h-2v2h-2v2h-2v2h-2v2h-2v2h-2v2h-2v2h-2v2h-2v2h-2v2h-2v2h-2v2
	h-2v2h-2v2h-2v2h-2v2h-2v2h-2v2h-2v2h-2v2h-2v2h-2v2h-2v2h-2v2h-8v-2h2v-2h2v-2h2v-2h2v-2h2v-2h2v-2h2v-2h2v-2h2v-2h2v-2h2v-2h2v-2
	h2v-2h2v-2h2v-2h2v-2h2v-2h2v-2h2v-2h2v-2h2v-2h2v-2h2v-2h2v-2h2v-2h2v-2h2v-2h2v-2h2v-2h2v-2h2v-2h2v-2h2v-2h2v-2h2V90z M290,94h2
	v38h-38v-2h2v-2h32V96h2V94z M526,96h4v68h-4V96z M484,130h28v2h-2v2h-22v2h-2v2h-2v2h-2v2h-2v2h-30v-2h-2v-2h28v-2h2v-2h2v-2h2v-2
	h2V130z M410,142h1v1h1v1h-2V142z M512,142h2v8h-2v2h-2v2h-2v2h-2v2h-2v2h-2v2h-2v2h-8v-2h2v-2h2v-2h2v-2h2v-2h2v-2h2v-2h2v-2h2v-2
	h2v-2h2V142z M288,144h4v40h-4V144z M412,144h1v1h1v1h-2V144z M414,146h1v1h1v1h-2V146z M416,148h1v1h1v1h-2V148z M418,150h1v1h1v1
	h-2V150z M420,152h1v1h1v1h-2V152z M422,154h1v1h1v1h-2V154z M424,156h1v1h1v1h-2V156z M426,158h1v1h1v1h-2V158z M428,160h1v1h1v1
	h-2V160z M430,162h1v1h1v1h-2V162z"/>
<path id="White_Outline" class="st4" d="M196,138h2v2h-2V138z M216,120h2v-2h-2V120z M218,118h2v-2h-2V118z M212,124h2v-2h-2V124z
	 M220,116h2v-2h-2V116z M200,136h2v-2h-2V136z M210,126h2v-2h-2V126z M202,134h2v-2h-2V134z M198,138h2v-2h-2V138z M222,114h2v-2h-2
	V114z M208,128h2v-2h-2V128z M204,132h2v-2h-2V132z M206,130h2v-2h-2V130z M214,122h2v-2h-2V122z M236,100h2v-2h-2V100z M242,94h2
	v-2h-2V94z M238,98h2v-2h-2V98z M240,96h2v-2h-2V96z M244,92h2v-2h-2V92z M246,90h2v-2h-2V90z M232,104h2v-2h-2V104z M228,108h2v-2
	h-2V108z M226,110h2v-2h-2V110z M234,102h2v-2h-2V102z M224,112h2v-2h-2V112z M230,106h2v-2h-2V106z M362,58h-2v2h2V58z M360,60h-2
	v2h2V60z M366,54h-2v2h2V54z M364,56h-2v2h2V56z M248,88h2v-2h-2V88z M358,62h-2v2h2V62z M356,64h-2v2h2V64z M368,52h-2v2h2V52z
	 M374,46h-2v2h2V46z M376,44h-2v2h2V44z M378,42h-2v2h2V42z M316,20h-2v2h2V20z M372,48h-2v2h2V48z M370,50h-2v2h2V50z M184,152h2
	v-2h-2V152z M186,150h2v-2h-2V150z M182,154h2v-2h-2V154z M194,142h2v-2h-2V142z M188,148h2v-2h-2V148z M380,40h-2v2h2V40z M190,146
	h2v-2h-2V146z M178,158h2v-2h-2V158z M308,28h-2v2h2V28z M180,156h2v-2h-2V156z M306,30h-2v2h2V30z M310,26h-2v2h2V26z M312,24h-2v2
	h2V24z M176,160h2v-2h-2V160z M190,50h2v-2h-2V50z M220,56h-2v2h2V56z M222,54h-2v2h2V54z M224,52h-2v2h2V52z M226,50h-2v2h2V50z
	 M214,62h-2v2h2V62z M216,60h-2v2h2V60z M218,58h-2v2h2V58z M236,40h-2v2h2V40z M234,42h-2v2h2V42z M228,48h-2v2h2V48z M238,38h-2v2
	h2V38z M230,46h-2v2h2V46z M232,44h-2v2h2V44z M212,64h-2v2h2V64z M240,36h-2v2h2V36z M180,60h2v-2h-2V60z M184,56h2v-2h-2V56z
	 M186,54h2v-2h-2V54z M178,62h2v-2h-2V62z M188,52h2v-2h-2V52z M182,58h2v-2h-2V58z M176,64h2v-2h-2V64z M170,70h-2v2h38v-2h-34v-2
	h-2V70z M210,66h-2v2h2V66z M208,68h-2v2h2V68z M172,68h2v-2h-2V68z M174,66h2v-2h-2V66z M276,60h2v-2h-2V60z M268,68h2v-2h-2V68z
	 M264,72h2v-2h-2V72z M266,70h2v-2h-2V70z M270,66h2v-2h-2V66z M272,64h2v-2h-2V64z M274,62h2v-2h-2V62z M260,76h2v-2h-2V76z
	 M254,82h2v-2h-2V82z M252,84h2v-2h-2V84z M256,80h2v-2h-2V80z M262,74h2v-2h-2V74z M250,86h2v-2h-2V86z M258,78h2v-2h-2V78z
	 M282,54h2v-2h-2V54z M290,46h2v-2h-2V46z M292,44h2v-2h-2V44z M296,40h2v-2h-2V40z M294,42h2v-2h-2V42z M300,36h2v-2h2v-2h-62v2h58
	V36z M298,38h2v-2h-2V38z M280,56h2v-2h-2V56z M242,34h-2v2h2V34z M278,58h2v-2h-2V58z M288,48h2v-2h-2V48z M286,50h2v-2h-2V50z
	 M284,52h2v-2h-2V52z M192,144h2v-2h-2V144z M420,72h-2v2h2V72z M414,78h-2v2h2V78z M424,68h-2v2h2V68z M426,66h-2v2h2V66z M418,74
	h-2v2h2V74z M416,76h-2v2h2V76z M422,70h-2v2h2V70z M444,84h2v-2h-2V84z M436,56h-2v2h2V56z M428,64h-2v2h2V64z M480,72v8h-34v2h36
	V54h-46v2h44V72z M430,62h-2v2h2V62z M432,60h-2v2h2V60z M434,58h-2v2h2V58z M416,150v-2h-2v2H416z M420,154v-2h-2v2H420z M414,148
	v-2h-2v2H414z M418,152v-2h-2v2H418z M412,146v-2h-2v2H412z M410,144v-2h-2v2H410z M408,84h-2v2h2V84z M412,80h-2v2h2V80z M422,156
	v-2h-2v2H422z M410,82h-2v2h2V82z M428,162v-2h-2v2H428z M424,158v-2h-2v2H424z M426,160v-2h-2v2H426z M438,130v-2h-2v2H438z
	 M494,160h-2v2h2V160z M496,158h-2v2h2V158z M498,156h-2v2h2V156z M484,130h-2v2h2V130z M514,140h-2v2h2v20v2h-22v-2h-2v2h-2v2h28
	v-28h-2V140z M500,154h-2v2h2V154z M510,144h-2v2h2V144z M482,132h-2v2h2V132z M512,142h-2v2h2V142z M508,146h-2v2h2V146z M506,148
	h-2v2h2V148z M502,152h-2v2h2V152z M504,150h-2v2h2V150z M442,134v-2h-2v2H442z M434,108v18v2h2V92h-2V108z M436,92h2v-2h-2V92z
	 M408,142v-2h-2v2H408z M440,88h2v-2h-2V88z M440,132v-2h-2v2H440z M438,90h2v-2h-2V90z M480,134h-2v2h2V134z M442,86h2v-2h-2V86z
	 M478,136h-2v2h2V136z M476,140v-2h-30v2H476z M444,136v-2h-2v2H444z M446,138v-2h-2v2H446z M378,86h2v-2h-2V86z M398,66h2v-2h-2V66
	z M396,68h2v-2h-2V68z M400,64h2v-2h-2V64z M404,60h2v-2h-2V60z M406,58h2v-2h-2V58z M394,70h2v-2h-2V70z M402,62h2v-2h-2V62z
	 M384,80h2v-2h-2V80z M392,72h2v-2h-2V72z M382,82h2v-2h-2V82z M380,84h2v-2h-2V84z M388,76h2v-2h-2V76z M390,74h2v-2h-2V74z
	 M386,78h2v-2h-2V78z M422,42h2v-2h-2V42z M408,56h2v-2h-2V56z M424,40h2v-2h-2V40z M426,38h2v-2h-2V38z M386,34h-2v2h2V34z M384,36
	h-2v2h2V36z M428,36h2v-2h2v-2h-46v2h42V36z M420,44h2v-2h-2V44z M412,52h2v-2h-2V52z M410,54h2v-2h-2V54z M414,50h2v-2h-2V50z
	 M418,46h2v-2h-2V46z M416,48h2v-2h-2V48z M386,120v-2h-2v2H386z M378,112v-2h-2v2H378z M404,138v2h2v-14v-18V90v-4h-2v50h-2v2H404z
	 M388,122v-2h-2v2H388z M384,118v-2h-2v2H384z M380,114v-2h-2v2H380z M382,116v-2h-2v2H382z M382,38h-2v2h2V38z M400,134v-2h-2v2
	H400z M402,136v-2h-2v2H402z M398,132v-2h-2v2H398z M396,130v-2h-2v2H396z M392,126v-2h-2v2H392z M394,128v-2h-2v2H394z M390,124v-2
	h-2v2H390z M372,92h2v-2h-2V92z M370,94h2v-2h-2V94z M368,96h2v-2h-2V96z M374,90h2v-2h-2V90z M376,88h2v-2h-2V88z M366,98h2v-2h-2
	V98z M372,106v-2h-2v2H372z M376,110v-2h-2v2H376z M374,108v-2h-2v2H374z M368,102v-2h-2v2H368z M370,104v-2h-2v2H370z M364,100h2
	v-2h-2V100z M314,22h-2v2h2V22z M124,152h-2v2h2V152z M142,134h-2v2h2V134z M122,154h-2v2h2V154z M128,148h-2v2h2V148z M118,158h-2
	v2h2V158z M120,156h-2v2h2V156z M134,142h-2v2h2V142z M138,138h-2v2h2V138z M136,140h-2v2h2V140z M140,136h-2v2h2V136z M176,160h-2
	v2h-58v-2h-2v2h-2v2h104v-2h-40V160z M130,146h-2v2h2V146z M132,144h-2v2h2V144z M126,150h-2v2h2V150z M232,146h2v-2h-2V146z
	 M230,148h2v-2h-2V148z M228,150h2v-2h-2V150z M234,144h2v-2h-2V144z M282,96h-2v2h2V96z M284,94h-2v2h2V94z M218,160h2v-2h-2V160z
	 M220,158h2v-2h-2V158z M216,162h2v-2h-2V162z M224,154h2v-2h-2V154z M222,156h2v-2h-2V156z M226,152h2v-2h-2V152z M162,114h-2v2h2
	V114z M182,94h-2v2h2V94z M176,100h-2v2h2V100z M180,96h-2v2h2V96z M178,98h-2v2h2V98z M174,102h-2v2h2V102z M172,104h-2v2h2V104z
	 M170,106h-2v2h2V106z M148,92h2v-2h-2V92z M146,94h2v-2h-2V94z M150,90h2v-2h-2V90z M184,92h-2v2h2V92z M186,90h-2v2h2V90z M188,88
	h2v-2h-38v2h34v2h2V88z M154,122h-2v2h2V122z M152,124h-2v2h2V124z M150,126h-2v2h2V126z M168,108h-2v2h2V108z M146,130h-2v2h2V130z
	 M148,128h-2v2h2V128z M156,120h-2v2h2V120z M144,132h-2v2h2V132z M166,110h-2v2h2V110z M158,118h-2v2h2V118z M164,112h-2v2h2V112z
	 M280,98h-2v2h2V98z M160,116h-2v2h2V116z M262,116h-2v2h2V116z M378,154v2h2v-2H378z M486,158h2v-2h-2V158z M484,160h2v-2h-2V160z
	 M488,156h2v-2h-2V156z M492,152h2v-2h-2V152z M490,154h2v-2h-2V154z M494,150h2v-2h-2V150z M382,158v2h2v-2H382z M380,156v2h2v-2
	H380z M384,160v2h2v-2H384z M386,162v2h2v-2H386z M480,164h2v-2h-2V164z M430,162h-2v2h-40v2h92v-2h-50V162z M482,162h2v-2h-2V162z
	 M484,130h28v2h2v-2h2v-2h-32V130z M496,148h2v-2h-2V148z M510,134h2v-2h-2V134z M558,66h30v100h-30V66z M560,164h26v-2v-18v-18v-18
	V90V72v-4h-26v4v18v18v18v18v18V164z M508,136h2v-2h-2V136z M588,32v30h-30V32H588z M586,34h-26v2v18v6h26v-6V36V34z M524,32h30v134
	h-30V94h-8v30h-30V32h30v48h8V32z M526,82h-12V72V54V36v-2h-26v2v18v18v18v18v14h26v-14V92h12v16v18v18v18v2h26v-2v-18v-18v-18V90
	V72V54V36v-2h-26v2v18v18V82z M498,146h2v-2h-2V146z M506,138h2v-2h-2V138z M500,144h2v-2h-2V144z M502,142h2v-2h-2V142z M278,100
	h-2v2h2V100z M504,140h2v-2h-2V140z M260,118h-2v2h2V118z M144,96h2v-2h-2V96z M266,112h-2v2h2V112z M264,114h-2v2h2V114z M256,122
	h-2v2h2V122z M258,120h-2v2h2V120z M272,106h-2v2h2V106z M276,102h-2v2h2V102z M274,104h-2v2h2V104z M270,108h-2v2h2V108z M268,110
	h-2v2h2V110z M288,126v-18V90h-2v2h-2v2h2v32h-32v-2h-2v2h-2v2h38V126z M356,132v2h2v-2H356z M350,128v16v18v2h-30v-2v-18v-18v-18
	V90V72V54V36v-2h30v2v18v14h4v-2h-2V32h-32V16h-2v2h-2v2h2v16v18v18v18v18v18v18v18v18v4h-30v-4v-18v-18v-4h-52v2h50v44h34v-20h32
	v-36h2v-2H350z M370,146v2h2v-2H370z M364,140v2h2v-2H364z M366,142v2h2v-2H366z M374,150v2h2v-2H374z M372,148v2h2v-2H372z
	 M368,144v2h2v-2H368z M376,152v2h2v-2H376z M362,138v2h2v-2H362z M354,130v2h2v-2H354z M360,136v2h2v-2H360z M358,134v2h2v-2H358z
	 M110,130h2v-2h-2V130z M96,84h-2v2h2V84z M92,88h-2v2h2V88z M94,86h-2v2h2V86z M90,90h-2v2h2V90z M88,92h-2v2h2V92z M86,94h-2v2h2
	V94z M98,82h-2v2h2V82z M106,74h-2v2h2V74z M108,72h-2v2h2V72z M84,96h-2v2h2V96z M104,76h-2v2h2V76z M102,78h-2v2h2V78z M58,122h-2
	v2h2V122z M78,102h-2v2h2V102z M66,114h-2v2h2V114z M70,110h-2v2h2V110z M64,116h-2v2h2V116z M68,112h-2v2h2V112z M62,118h-2v2h2
	V118z M60,120h-2v2h2V120z M110,70h-2v2h2V70z M82,98h-2v2h2V98z M80,100h-2v2h2V100z M72,108h-2v2h2V108z M76,104h-2v2h2V104z
	 M142,98h2v-2h-2V98z M100,80h-2v2h2V80z M144,36h-2v2h2V36z M146,34h-2v2h2V34z M138,42h-2v2h2V42z M206,34h2v-2h2v-2h-62v2h58V34z
	 M140,40h-2v2h2V40z M142,38h-2v2h2V38z M148,32h-2v2h2V32z M204,36h2v-2h-2V36z M194,46h2v-2h-2V46z M198,42h2v-2h-2V42z M196,44h2
	v-2h-2V44z M200,40h2v-2h-2V40z M202,38h2v-2h-2V38z M120,60h-2v2h2V60z M112,68h-2v2h2V68z M122,58h-2v2h2V58z M118,62h-2v2h2V62z
	 M136,44h-2v2h2V44z M116,64h-2v2h2V64z M114,66h-2v2h2V66z M124,56h-2v2h2V56z M134,46h-2v2h2V46z M132,48h-2v2h2V48z M130,50h-2v2
	h2V50z M128,52h-2v2h2V52z M126,54h-2v2h2V54z M74,106h-2v2h2V106z M104,136h2v-2h-2V136z M192,48h2v-2h-2V48z M106,134h2v-2h-2V134
	z M108,132h2v-2h-2V132z M114,126h2v-2h-2V126z M112,128h2v-2h-2V128z M98,142h2v-2h-2V142z M96,144h2v-2h-2V144z M56,124h-2v2h2
	V124z M92,148h2v-2h-2V148z M102,138h2v-2h-2V138z M116,124h2v-2h-2V124z M100,140h2v-2h-2V140z M90,150h2v-2h-2V150z M134,106h2v-2
	h-2V106z M132,108h2v-2h-2V108z M118,122h2v-2h-2V122z M136,104h2v-2h-2V104z M138,102h2v-2h-2V102z M140,100h2v-2h-2V100z M130,110
	h2v-2h-2V110z M128,112h2v-2h-2V112z M122,118h2v-2h-2V118z M120,120h2v-2h-2V120z M124,116h2v-2h-2V116z M126,114h2v-2h-2V114z
	 M94,146h2v-2h-2V146z M38,142h-2v2h2V142z M32,148h-2v2h2V148z M44,136h-2v2h2V136z M42,138h-2v2h2V138z M36,144h-2v2h2V144z
	 M34,146h-2v2h2V146z M40,140h-2v2h2V140z M46,134h-2v2h2V134z M52,128h-2v2h2V128z M54,126h-2v2h2V126z M48,132h-2v2h2V132z
	 M50,130h-2v2h2V130z M80,160h2v-2h-2V160z M20,160h-2v2h-2v2h62v-2H20V160z M82,158h2v-2h-2V158z M78,162h2v-2h-2V162z M88,152h2
	v-2h-2V152z M84,156h2v-2h-2V156z M22,158h-2v2h2V158z M24,156h-2v2h2V156z M28,152h-2v2h2V152z M86,154h2v-2h-2V154z M30,150h-2v2
	h2V150z M26,154h-2v2h2V154z"/>
<g id="Flare">
	<path id="_x31_" class="st16" d="M323,25h1v1h-1V25z M275,25h1v-1h-1V25z"/>
	<path id="_x33_" class="st17" d="M299,23h1v1h-1V23z M314,43v1h1v-1H314z"/>
	<path id="_x34_" class="st18" d="M323,25v1h-1v-1H323z"/>
	<path id="_x35_" class="st19" d="M313,33h1v1h-1V33z M276,25h1v-1h-1V25z M315,0h-1v1h1V0z M334,24v1h1v-1H334z M315,15h1v-1h-1V15
		z"/>
	<path id="_x37_" class="st20" d="M314,42h1v1h-1V42z M321,25v1h1v-1H321z"/>
	<path id="_x39_" class="st21" d="M277,24h1v1h-1V24z M300,24h1v-1h-1V24z M314,2h1V1h-1V2z"/>
	<path id="_x31_0" class="st22" d="M321,25v1h-1h-1h-1v-1h1h1H321z"/>
	<path id="_x31_1" class="st23" d="M314,41h1v1h-1V41z M278,25h1v-1h-1V25z M333,24v1h1v-1H333z"/>
	<path id="_x31_2" class="st24" d="M314,32v1h-1v-1H314z"/>
	<path id="_x31_3" class="st25" d="M279,24h1v1h-1V24z M315,16h1v-1h-1V16z M314,3h1V2h-1V3z"/>
	<path id="_x31_4" class="st26" d="M315,40v1h-1v-1H315z"/>
	<path id="_x31_6" class="st27" d="M332,24h1v1h-1V24z M280,25h1v-1h-1V25z M301,24h1v-1h-1V24z M314,4h1V3h-1V4z"/>
	<path id="_x31_9" class="st28" d="M282,24v1h-1v-1H282z"/>
	<path id="_x32_0" class="st29" d="M315,38v1v1h-1v-1v-1H315z"/>
	<path id="_x32_2" class="st30" d="M331,24h1v1h-1V24z M282,25h1v-1h-1V25z M314,5h1V4h-1V5z"/>
	<path id="_x32_3" class="st31" d="M283,24h1v1h-1V24z M302,24h1v-1h-1V24z M315,16v1h1v-1H315z"/>
	<path id="_x32_6" class="st32" d="M330,24h1v1h-1V24z M284,25h1v-1h-1V25z M314,6h1V5h-1V6z"/>
	<path id="_x32_9" class="st33" d="M314,35h1v1v1v1h-1v-1v-1V35z M314,6v1h1V6H314z M285,25h1v-1h-1V25z M303,24h1v-1h-1V24z"/>
	<path id="_x33_1" class="st34" d="M286,24h1v1h-1V24z M329,24v1h1v-1H329z"/>
	<path id="_x33_4" class="st35" d="M287,24h1v1h-1V24z M315,18h1v-1h-1V18z M314,8h1V7h-1V8z"/>
	<path id="_x33_6" class="st36" d="M328,24h1v1h-1V24z M288,25h1v-1h-1V25z M304,24h1v-1h-1V24z"/>
	<path id="_x33_9" class="st37" d="M314,32h-1v-1h1V32z M289,25h1v-1h-1V25z M314,8v1h1V8H314z M314,34v1h1v-1v-1h-1V34z"/>
	<path id="_x34_1" class="st38" d="M328,24v1h-1v-1H328z M290,25h1v-1h-1V25z M315,19v1v1h1v-1v-1v-1h-1V19z M315,9h-1v1h1V9z"/>
	<path id="_x34_3" class="st39" d="M314,30v1h-1v-1H314z"/>
	<path id="_x34_4" class="st40" d="M291,24h1v1h-1V24z M305,23v1h1v-1H305z"/>
	<path id="_x34_6" class="st41" d="M327,24v1h-1v-1H327z M292,25h1v-1h-1V25z M314,11h1v-1h-1V11z"/>
	<path id="_x34_7" class="st42" d="M315,31v1v1h-1v-1v-1H315z"/>
	<path id="_x35_0" class="st43" d="M326,24v1h-1v-1H326z M293,25h1v-1h-1V25z M306,24h1v-1h-1V24z M314,12h1v-1h-1V12z"/>
	<path id="_x35_1" class="st44" d="M318,25v1h-1v-1H318z"/>
	<path id="_x35_2" class="st45" d="M315,30v1h-1v-1H315z M294,25h1v-1h-1V25z M313,29v1h1v-1H313z"/>
	<path id="_x35_4" class="st46" d="M295,24h1v1h-1V24z M314,12v1h1v-1H314z"/>
	<path id="_x35_6" class="st47" d="M314,29h1v1h-1V29z M324,24v1h1v-1H324z M296,25h1v-1h-1V25z M307,24h1v-1h-1V24z"/>
	<path id="_x35_8" class="st48" d="M316,21v1h-1v-1H316z"/>
	<path id="_x36_0" class="st49" d="M313,28h1v1h-1V28z M297,25h1v-1h-1V25z M314,13v1h1v-1H314z"/>
	<path id="_x36_1" class="st50" d="M324,24v1h-1h-1v-1h1H324z M298,25h1v-1h-1V25z"/>
	<path id="_x36_2" class="st51" d="M317,25v1h-1v-1H317z"/>
	<path id="_x36_3" class="st52" d="M322,24v1h-1h-1h-1h-1v-1h1h1h1H322z"/>
	<path id="_x36_4" class="st53" d="M299,24h1v1h-1V24z M308,24h1v-1h-1V24z M314,14v1h1v-1H314z"/>
	<path id="_x36_6" class="st54" d="M300,24h1v1h-1V24z M314,15v1h1v-1H314z"/>
	<path id="_x36_7" class="st55" d="M316,22v1h-1v-1H316z"/>
	<path id="_x36_9" class="st56" d="M314,27v1h-1v-1H314z"/>
	<path id="_x37_0" class="st57" d="M301,24h1v1h-1V24z M311,23h-1h-1v1h1h1h1v-1H311z"/>
	<path id="_x37_2" class="st58" d="M302,24h1v1h-1V24z M314,16v1h1v-1H314z"/>
	<path id="_x37_3" class="st59" d="M314,28h1v1h-1V28z M315,25v1h1v-1H315z"/>
	<path id="_x37_5" class="st60" d="M303,24h1v1h-1V24z M315,23v1h1v-1H315z M315,17h-1v1h1V17z"/>
	<path id="_x37_6" class="st61" d="M314,26v1h-1v-1H314z M314,27v1h1v-1H314z"/>
	<path id="_x37_7" class="st62" d="M304,24h1v1h-1V24z M312,24h1v-1h-1V24z M317,24v1h1v-1H317z"/>
	<path id="_x37_9" class="st63" d="M314,26h1v1h-1V26z M314,21v1h1v-1H314z"/>
	<path id="_x38_0" class="st64" d="M305,24h1v1h-1V24z M314,18v1v1v1h1v-1v-1v-1H314z"/>
	<path id="_x38_2" class="st65" d="M307,24v1h-1v-1H307z"/>
	<path id="_x38_3" class="st66" d="M314,22h1v1h-1V22z M316,24v1h1v-1H316z"/>
	<path id="_x38_4" class="st67" d="M308,24v1h-1v-1H308z"/>
	<path id="_x38_5" class="st68" d="M313,26v-1h1v1H313z M312,24h-1h-1h-1v1h1h1h1h1v-1H312z M314,23h-1v1h1V23z"/>
	<path id="_x38_7" class="st69" d="M308,24h1v1h-1V24z M315,24v-1h-1v1h-1v1h1v1h1v-1h1v-1H315z"/>
</g>
</svg>
